<svg width="32" height="18" viewBox="0 0 32 18" fill="none" xmlns="http://www.w3.org/2000/svg">
<path d="M13.0406 0.151999V3.44H8.57662V17H4.47262V3.44H0.00861719V0.151999H13.0406ZM19.4923 14.12C19.4923 14.28 19.4823 14.4467 19.4623 14.62H15.5923C15.619 14.9667 15.729 15.2333 15.9223 15.42C16.1223 15.6 16.3656 15.69 16.6523 15.69C17.079 15.69 17.3756 15.51 17.5423 15.15H19.3623C19.269 15.5167 19.099 15.8467 18.8523 16.14C18.6123 16.4333 18.309 16.6633 17.9423 16.83C17.5756 16.9967 17.1656 17.08 16.7123 17.08C16.1656 17.08 15.679 16.9633 15.2523 16.73C14.8256 16.4967 14.4923 16.1633 14.2523 15.73C14.0123 15.2967 13.8923 14.79 13.8923 14.21C13.8923 13.63 14.009 13.1233 14.2423 12.69C14.4823 12.2567 14.8156 11.9233 15.2423 11.69C15.669 11.4567 16.159 11.34 16.7123 11.34C17.2523 11.34 17.7323 11.4533 18.1523 11.68C18.5723 11.9067 18.899 12.23 19.1323 12.65C19.3723 13.07 19.4923 13.56 19.4923 14.12ZM17.7423 13.67C17.7423 13.3767 17.6423 13.1433 17.4423 12.97C17.2423 12.7967 16.9923 12.71 16.6923 12.71C16.4056 12.71 16.1623 12.7933 15.9623 12.96C15.769 13.1267 15.649 13.3633 15.6023 13.67H17.7423ZM20.0544 14.21C20.0544 13.63 20.1711 13.1233 20.4044 12.69C20.6444 12.2567 20.9744 11.9233 21.3944 11.69C21.8211 11.4567 22.3077 11.34 22.8544 11.34C23.5544 11.34 24.1377 11.5233 24.6044 11.89C25.0777 12.2567 25.3877 12.7733 25.5344 13.44H23.7144C23.5611 13.0133 23.2644 12.8 22.8244 12.8C22.5111 12.8 22.2611 12.9233 22.0744 13.17C21.8877 13.41 21.7944 13.7567 21.7944 14.21C21.7944 14.6633 21.8877 15.0133 22.0744 15.26C22.2611 15.5 22.5111 15.62 22.8244 15.62C23.2644 15.62 23.5611 15.4067 23.7144 14.98H25.5344C25.3877 15.6333 25.0777 16.1467 24.6044 16.52C24.1311 16.8933 23.5477 17.08 22.8544 17.08C22.3077 17.08 21.8211 16.9633 21.3944 16.73C20.9744 16.4967 20.6444 16.1633 20.4044 15.73C20.1711 15.2967 20.0544 14.79 20.0544 14.21ZM29.8791 11.36C30.5191 11.36 31.0324 11.5733 31.4191 12C31.8058 12.42 31.9991 13 31.9991 13.74V17H30.2991V13.97C30.2991 13.5967 30.2024 13.3067 30.0091 13.1C29.8158 12.8933 29.5558 12.79 29.2291 12.79C28.9024 12.79 28.6424 12.8933 28.4491 13.1C28.2558 13.3067 28.1591 13.5967 28.1591 13.97V17H26.4491V9.6H28.1591V12.17C28.3324 11.9233 28.5691 11.7267 28.8691 11.58C29.1691 11.4333 29.5058 11.36 29.8791 11.36Z" fill="url(#paint0_linear_307_5)"/>
<defs>
<linearGradient id="paint0_linear_307_5" x1="-2.74471e-07" y1="-0.5" x2="33.5" y2="28.5" gradientUnits="userSpaceOnUse">
<stop stop-color="#3AB8FF"/>
<stop offset="1" stop-color="white"/>
</linearGradient>
</defs>
</svg>
