<svg width="286" height="119" viewBox="0 0 286 119" fill="none" xmlns="http://www.w3.org/2000/svg">
<rect x="45" width="160" height="119" rx="12" fill="url(#paint0_linear_4_157)"/>
<rect y="23" width="141" height="26" rx="13" fill="#0019FF"/>
<path d="M18.1186 41V30.8182H19.6548V39.6776H24.2685V41H18.1186ZM28.1239 41.169C27.64 41.169 27.2025 41.0795 26.8114 40.9006C26.4203 40.7183 26.1104 40.4548 25.8817 40.1101C25.6564 39.7654 25.5437 39.3428 25.5437 38.8423C25.5437 38.4115 25.6265 38.0568 25.7923 37.7784C25.958 37.5 26.1817 37.2796 26.4634 37.1172C26.7451 36.9548 27.06 36.8321 27.408 36.7493C27.756 36.6664 28.1107 36.6035 28.4719 36.5604C28.9293 36.5073 29.3005 36.4643 29.5856 36.4311C29.8706 36.3946 30.0778 36.3366 30.207 36.2571C30.3363 36.1776 30.4009 36.0483 30.4009 35.8693V35.8345C30.4009 35.4003 30.2783 35.0639 30.033 34.8253C29.7911 34.5866 29.4298 34.4673 28.9492 34.4673C28.4487 34.4673 28.0543 34.5784 27.766 34.8004C27.4809 35.0192 27.2837 35.2628 27.1744 35.5312L25.7773 35.2131C25.9431 34.7491 26.185 34.3745 26.5032 34.0895C26.8247 33.8011 27.1942 33.5923 27.6119 33.4631C28.0295 33.3305 28.4686 33.2642 28.9293 33.2642C29.2343 33.2642 29.5574 33.3007 29.8988 33.3736C30.2435 33.4432 30.565 33.5724 30.8633 33.7614C31.1649 33.9503 31.4118 34.2204 31.604 34.5717C31.7963 34.9197 31.8924 35.3722 31.8924 35.929V41H30.4407V39.956H30.381C30.2849 40.1482 30.1407 40.3371 29.9485 40.5227C29.7563 40.7083 29.5094 40.8625 29.2077 40.9851C28.9061 41.1077 28.5449 41.169 28.1239 41.169ZM28.4471 39.9759C28.8581 39.9759 29.2094 39.8946 29.5011 39.7322C29.796 39.5698 30.0198 39.3577 30.1722 39.0959C30.328 38.8307 30.4059 38.5473 30.4059 38.2457V37.2614C30.3529 37.3144 30.2501 37.3641 30.0977 37.4105C29.9485 37.4536 29.7778 37.4917 29.5856 37.5249C29.3933 37.5547 29.2061 37.5829 29.0238 37.6094C28.8415 37.6326 28.689 37.6525 28.5664 37.669C28.2781 37.7055 28.0146 37.7668 27.7759 37.853C27.5406 37.9392 27.3517 38.0634 27.2092 38.2259C27.07 38.3849 27.0004 38.5971 27.0004 38.8622C27.0004 39.2301 27.1362 39.5085 27.408 39.6974C27.6798 39.883 28.0262 39.9759 28.4471 39.9759ZM34.5385 43.8636C34.3165 43.8636 34.1143 43.8454 33.932 43.8089C33.7497 43.7758 33.6138 43.7393 33.5243 43.6996L33.8823 42.4815C34.1541 42.5545 34.396 42.5859 34.6081 42.576C34.8203 42.5661 35.0075 42.4865 35.1699 42.3374C35.3356 42.1882 35.4815 41.9446 35.6074 41.6065L35.7914 41.0994L32.9973 33.3636H34.5882L36.5222 39.2898H36.6017L38.5357 33.3636H40.1316L36.9846 42.0192C36.8387 42.4169 36.6531 42.7533 36.4277 43.0284C36.2024 43.3068 35.9339 43.5156 35.6223 43.6548C35.3108 43.794 34.9495 43.8636 34.5385 43.8636ZM44.4854 41.1541C43.7695 41.1541 43.1448 40.9901 42.6112 40.6619C42.0775 40.3338 41.6632 39.8748 41.3683 39.2848C41.0733 38.6948 40.9258 38.0054 40.9258 37.2166C40.9258 36.4245 41.0733 35.7318 41.3683 35.1385C41.6632 34.5452 42.0775 34.0845 42.6112 33.7564C43.1448 33.4283 43.7695 33.2642 44.4854 33.2642C45.2013 33.2642 45.8261 33.4283 46.3597 33.7564C46.8933 34.0845 47.3076 34.5452 47.6026 35.1385C47.8976 35.7318 48.0451 36.4245 48.0451 37.2166C48.0451 38.0054 47.8976 38.6948 47.6026 39.2848C47.3076 39.8748 46.8933 40.3338 46.3597 40.6619C45.8261 40.9901 45.2013 41.1541 44.4854 41.1541ZM44.4904 39.9062C44.9544 39.9062 45.3389 39.7836 45.6438 39.5384C45.9487 39.2931 46.1741 38.9666 46.32 38.5589C46.4691 38.1513 46.5437 37.7022 46.5437 37.2116C46.5437 36.7244 46.4691 36.277 46.32 35.8693C46.1741 35.4583 45.9487 35.1286 45.6438 34.88C45.3389 34.6314 44.9544 34.5071 44.4904 34.5071C44.0231 34.5071 43.6353 34.6314 43.3271 34.88C43.0221 35.1286 42.7951 35.4583 42.646 35.8693C42.5001 36.277 42.4272 36.7244 42.4272 37.2116C42.4272 37.7022 42.5001 38.1513 42.646 38.5589C42.7951 38.9666 43.0221 39.2931 43.3271 39.5384C43.6353 39.7836 44.0231 39.9062 44.4904 39.9062ZM54.5417 37.8331V33.3636H56.0332V41H54.5716V39.6776H54.492C54.3163 40.0852 54.0346 40.425 53.6468 40.6967C53.2624 40.9652 52.7834 41.0994 52.21 41.0994C51.7195 41.0994 51.2853 40.9917 50.9075 40.7763C50.533 40.5575 50.238 40.2344 50.0225 39.8068C49.8104 39.3793 49.7044 38.8506 49.7044 38.2209V33.3636H51.1909V38.0419C51.1909 38.5623 51.335 38.9766 51.6234 39.2848C51.9118 39.593 52.2863 39.7472 52.747 39.7472C53.0254 39.7472 53.3021 39.6776 53.5772 39.5384C53.8556 39.3991 54.086 39.1887 54.2683 38.907C54.4539 38.6252 54.545 38.2673 54.5417 37.8331ZM61.5952 33.3636V34.5568H57.424V33.3636H61.5952ZM58.5426 31.5341H60.0291V38.7578C60.0291 39.0462 60.0722 39.2633 60.1584 39.4091C60.2446 39.5516 60.3556 39.6494 60.4915 39.7024C60.6307 39.7521 60.7815 39.777 60.9439 39.777C61.0632 39.777 61.1676 39.7687 61.2571 39.7521C61.3466 39.7356 61.4162 39.7223 61.4659 39.7124L61.7344 40.9403C61.6482 40.9735 61.5256 41.0066 61.3665 41.0398C61.2074 41.0762 61.0085 41.0961 60.7699 41.0994C60.3788 41.1061 60.0142 41.0365 59.6761 40.8906C59.3381 40.7448 59.0646 40.5194 58.8558 40.2145C58.647 39.9096 58.5426 39.5268 58.5426 39.0661V31.5341ZM68.8388 35.228L67.4915 35.4666C67.4351 35.2943 67.3456 35.1302 67.223 34.9744C67.1037 34.8187 66.9413 34.6911 66.7358 34.5916C66.5303 34.4922 66.2734 34.4425 65.9652 34.4425C65.5443 34.4425 65.1929 34.5369 64.9112 34.7259C64.6295 34.9115 64.4886 35.1518 64.4886 35.4467C64.4886 35.7019 64.5831 35.9074 64.772 36.0632C64.9609 36.219 65.2659 36.3466 65.6868 36.446L66.8999 36.7244C67.6025 36.8868 68.1262 37.1371 68.4709 37.4751C68.8156 37.8132 68.9879 38.2524 68.9879 38.7926C68.9879 39.25 68.8554 39.6577 68.5902 40.0156C68.3284 40.3703 67.9621 40.6487 67.4915 40.8509C67.0241 41.053 66.4822 41.1541 65.8658 41.1541C65.0107 41.1541 64.313 40.9718 63.7727 40.6072C63.2325 40.2393 62.901 39.7173 62.7784 39.0412L64.2152 38.8224C64.3047 39.197 64.4886 39.4804 64.767 39.6726C65.0455 39.8615 65.4084 39.956 65.8558 39.956C66.343 39.956 66.7325 39.8549 67.0241 39.6527C67.3158 39.4472 67.4616 39.197 67.4616 38.902C67.4616 38.6634 67.3722 38.4628 67.1932 38.3004C67.0175 38.138 66.7474 38.0154 66.3828 37.9325L65.0902 37.6491C64.3776 37.4867 63.8506 37.2282 63.5092 36.8736C63.1712 36.5189 63.0021 36.0698 63.0021 35.5263C63.0021 35.0755 63.1281 34.6811 63.38 34.343C63.6319 34.005 63.9799 33.7415 64.424 33.5526C64.8681 33.3603 65.3769 33.2642 65.9503 33.2642C66.7756 33.2642 67.4252 33.4432 67.8991 33.8011C68.3731 34.1558 68.6863 34.6314 68.8388 35.228ZM74.4467 41V30.8182H75.9332V34.6016H76.0227C76.1089 34.4425 76.2332 34.2585 76.3956 34.0497C76.558 33.8409 76.7834 33.6586 77.0717 33.5028C77.3601 33.3438 77.7412 33.2642 78.2152 33.2642C78.8317 33.2642 79.3819 33.42 79.8658 33.7315C80.3497 34.0431 80.7292 34.4922 81.0043 35.0788C81.2827 35.6655 81.4219 36.3714 81.4219 37.1967C81.4219 38.022 81.2843 38.7296 81.0092 39.3196C80.7341 39.9062 80.3563 40.3587 79.8757 40.6768C79.3951 40.9917 78.8466 41.1491 78.2301 41.1491C77.7661 41.1491 77.3866 41.0713 77.0916 40.9155C76.8 40.7597 76.5713 40.5774 76.4055 40.3686C76.2398 40.1598 76.1122 39.9742 76.0227 39.8118H75.8984V41H74.4467ZM75.9034 37.1818C75.9034 37.7187 75.9813 38.1894 76.1371 38.5938C76.2929 38.9981 76.5182 39.3146 76.8132 39.5433C77.1082 39.7687 77.4695 39.8814 77.897 39.8814C78.3411 39.8814 78.7124 39.7637 79.0107 39.5284C79.3089 39.2898 79.5343 38.9666 79.6868 38.5589C79.8426 38.1513 79.9205 37.6922 79.9205 37.1818C79.9205 36.678 79.8442 36.2256 79.6918 35.8246C79.5426 35.4235 79.3172 35.107 79.0156 34.875C78.7173 34.643 78.3445 34.527 77.897 34.527C77.4661 34.527 77.1016 34.638 76.8033 34.8601C76.5083 35.0821 76.2846 35.392 76.1321 35.7898C75.9796 36.1875 75.9034 36.6515 75.9034 37.1818ZM86.3077 41.1541C85.5918 41.1541 84.967 40.9901 84.4334 40.6619C83.8998 40.3338 83.4855 39.8748 83.1905 39.2848C82.8955 38.6948 82.748 38.0054 82.748 37.2166C82.748 36.4245 82.8955 35.7318 83.1905 35.1385C83.4855 34.5452 83.8998 34.0845 84.4334 33.7564C84.967 33.4283 85.5918 33.2642 86.3077 33.2642C87.0236 33.2642 87.6484 33.4283 88.182 33.7564C88.7156 34.0845 89.1299 34.5452 89.4249 35.1385C89.7199 35.7318 89.8674 36.4245 89.8674 37.2166C89.8674 38.0054 89.7199 38.6948 89.4249 39.2848C89.1299 39.8748 88.7156 40.3338 88.182 40.6619C87.6484 40.9901 87.0236 41.1541 86.3077 41.1541ZM86.3127 39.9062C86.7767 39.9062 87.1612 39.7836 87.4661 39.5384C87.771 39.2931 87.9964 38.9666 88.1422 38.5589C88.2914 38.1513 88.3659 37.7022 88.3659 37.2116C88.3659 36.7244 88.2914 36.277 88.1422 35.8693C87.9964 35.4583 87.771 35.1286 87.4661 34.88C87.1612 34.6314 86.7767 34.5071 86.3127 34.5071C85.8453 34.5071 85.4576 34.6314 85.1493 34.88C84.8444 35.1286 84.6174 35.4583 84.4682 35.8693C84.3224 36.277 84.2495 36.7244 84.2495 37.2116C84.2495 37.7022 84.3224 38.1513 84.4682 38.5589C84.6174 38.9666 84.8444 39.2931 85.1493 39.5384C85.4576 39.7836 85.8453 39.9062 86.3127 39.9062ZM93.0131 36.4659V41H91.5266V33.3636H92.9535V34.6065H93.0479C93.2236 34.2022 93.4987 33.8774 93.8732 33.6321C94.2511 33.3868 94.7267 33.2642 95.3001 33.2642C95.8204 33.2642 96.2762 33.3736 96.6673 33.5923C97.0584 33.8078 97.3616 34.1293 97.5771 34.5568C97.7925 34.9844 97.9002 35.513 97.9002 36.1428V41H96.4137V36.3217C96.4137 35.7682 96.2695 35.3357 95.9812 35.0241C95.6928 34.7093 95.2968 34.5518 94.793 34.5518C94.4483 34.5518 94.1417 34.6264 93.8732 34.7756C93.6081 34.9247 93.3976 35.1435 93.2418 35.4318C93.0894 35.7169 93.0131 36.0616 93.0131 36.4659ZM99.8938 41V33.3636H101.38V41H99.8938ZM100.645 32.1854C100.386 32.1854 100.164 32.0992 99.9783 31.9268C99.796 31.7512 99.7049 31.5424 99.7049 31.3004C99.7049 31.0552 99.796 30.8464 99.9783 30.674C100.164 30.4983 100.386 30.4105 100.645 30.4105C100.903 30.4105 101.123 30.4983 101.306 30.674C101.491 30.8464 101.584 31.0552 101.584 31.3004C101.584 31.5424 101.491 31.7512 101.306 31.9268C101.123 32.0992 100.903 32.1854 100.645 32.1854ZM106.945 33.3636V34.5568H102.774V33.3636H106.945ZM103.892 31.5341H105.379V38.7578C105.379 39.0462 105.422 39.2633 105.508 39.4091C105.594 39.5516 105.705 39.6494 105.841 39.7024C105.98 39.7521 106.131 39.777 106.294 39.777C106.413 39.777 106.517 39.7687 106.607 39.7521C106.696 39.7356 106.766 39.7223 106.816 39.7124L107.084 40.9403C106.998 40.9735 106.875 41.0066 106.716 41.0398C106.557 41.0762 106.358 41.0961 106.119 41.0994C105.728 41.1061 105.364 41.0365 105.026 40.8906C104.688 40.7448 104.414 40.5194 104.205 40.2145C103.997 39.9096 103.892 39.5268 103.892 39.0661V31.5341ZM111.724 41.1541C111.008 41.1541 110.383 40.9901 109.849 40.6619C109.316 40.3338 108.902 39.8748 108.607 39.2848C108.312 38.6948 108.164 38.0054 108.164 37.2166C108.164 36.4245 108.312 35.7318 108.607 35.1385C108.902 34.5452 109.316 34.0845 109.849 33.7564C110.383 33.4283 111.008 33.2642 111.724 33.2642C112.44 33.2642 113.064 33.4283 113.598 33.7564C114.132 34.0845 114.546 34.5452 114.841 35.1385C115.136 35.7318 115.283 36.4245 115.283 37.2166C115.283 38.0054 115.136 38.6948 114.841 39.2848C114.546 39.8748 114.132 40.3338 113.598 40.6619C113.064 40.9901 112.44 41.1541 111.724 41.1541ZM111.729 39.9062C112.193 39.9062 112.577 39.7836 112.882 39.5384C113.187 39.2931 113.412 38.9666 113.558 38.5589C113.707 38.1513 113.782 37.7022 113.782 37.2116C113.782 36.7244 113.707 36.277 113.558 35.8693C113.412 35.4583 113.187 35.1286 112.882 34.88C112.577 34.6314 112.193 34.5071 111.729 34.5071C111.261 34.5071 110.874 34.6314 110.565 34.88C110.26 35.1286 110.033 35.4583 109.884 35.8693C109.738 36.277 109.665 36.7244 109.665 37.2116C109.665 37.7022 109.738 38.1513 109.884 38.5589C110.033 38.9666 110.26 39.2931 110.565 39.5384C110.874 39.7836 111.261 39.9062 111.729 39.9062ZM122.665 35.228L121.318 35.4666C121.261 35.2943 121.172 35.1302 121.049 34.9744C120.93 34.8187 120.767 34.6911 120.562 34.5916C120.356 34.4922 120.1 34.4425 119.791 34.4425C119.37 34.4425 119.019 34.5369 118.737 34.7259C118.456 34.9115 118.315 35.1518 118.315 35.4467C118.315 35.7019 118.409 35.9074 118.598 36.0632C118.787 36.219 119.092 36.3466 119.513 36.446L120.726 36.7244C121.429 36.8868 121.952 37.1371 122.297 37.4751C122.642 37.8132 122.814 38.2524 122.814 38.7926C122.814 39.25 122.682 39.6577 122.416 40.0156C122.155 40.3703 121.788 40.6487 121.318 40.8509C120.85 41.053 120.308 41.1541 119.692 41.1541C118.837 41.1541 118.139 40.9718 117.599 40.6072C117.059 40.2393 116.727 39.7173 116.605 39.0412L118.041 38.8224C118.131 39.197 118.315 39.4804 118.593 39.6726C118.872 39.8615 119.235 39.956 119.682 39.956C120.169 39.956 120.559 39.8549 120.85 39.6527C121.142 39.4472 121.288 39.197 121.288 38.902C121.288 38.6634 121.198 38.4628 121.019 38.3004C120.844 38.138 120.574 38.0154 120.209 37.9325L118.916 37.6491C118.204 37.4867 117.677 37.2282 117.335 36.8736C116.997 36.5189 116.828 36.0698 116.828 35.5263C116.828 35.0755 116.954 34.6811 117.206 34.343C117.458 34.005 117.806 33.7415 118.25 33.5526C118.694 33.3603 119.203 33.2642 119.776 33.2642C120.602 33.2642 121.251 33.4432 121.725 33.8011C122.199 34.1558 122.512 34.6314 122.665 35.228Z" fill="white"/>
<rect x="145" y="72" width="141" height="26" rx="13" fill="#0019FF"/>
<path d="M167.979 90H166.348L170.012 79.8182H171.787L175.451 90H173.82L170.942 81.6676H170.862L167.979 90ZM168.252 86.0128H173.542V87.3054H168.252V86.0128ZM179.896 90.1541C179.156 90.1541 178.52 89.9867 177.987 89.652C177.456 89.3139 177.049 88.8482 176.763 88.255C176.478 87.6617 176.336 86.9822 176.336 86.2166C176.336 85.4411 176.482 84.7566 176.773 84.1634C177.065 83.5668 177.476 83.1011 178.006 82.7663C178.537 82.4316 179.161 82.2642 179.881 82.2642C180.461 82.2642 180.978 82.3719 181.432 82.5874C181.886 82.7995 182.252 83.0978 182.531 83.4822C182.812 83.8667 182.98 84.3158 183.033 84.8295H181.586C181.506 84.4716 181.324 84.1634 181.039 83.9048C180.757 83.6463 180.379 83.517 179.906 83.517C179.491 83.517 179.128 83.6264 178.817 83.8452C178.509 84.0606 178.268 84.3688 178.096 84.7699C177.924 85.1676 177.837 85.6383 177.837 86.1818C177.837 86.7386 177.922 87.2192 178.091 87.6236C178.26 88.0279 178.499 88.3411 178.807 88.5632C179.118 88.7853 179.485 88.8963 179.906 88.8963C180.187 88.8963 180.442 88.8449 180.671 88.7422C180.903 88.6361 181.097 88.4853 181.253 88.2898C181.412 88.0942 181.523 87.8589 181.586 87.5838H183.033C182.98 88.0777 182.819 88.5185 182.55 88.9062C182.282 89.294 181.922 89.599 181.472 89.821C181.024 90.0431 180.499 90.1541 179.896 90.1541ZM187.914 90.1541C187.161 90.1541 186.513 89.9934 185.97 89.6719C185.429 89.3471 185.012 88.8913 184.717 88.3047C184.425 87.7147 184.279 87.0237 184.279 86.2315C184.279 85.4493 184.425 84.7599 184.717 84.1634C185.012 83.5668 185.423 83.1011 185.95 82.7663C186.48 82.4316 187.1 82.2642 187.809 82.2642C188.24 82.2642 188.658 82.3355 189.062 82.478C189.466 82.6205 189.829 82.8442 190.151 83.1491C190.472 83.4541 190.726 83.8501 190.911 84.3374C191.097 84.8213 191.19 85.4096 191.19 86.1023V86.6293H185.119V85.5156H189.733C189.733 85.1245 189.654 84.7782 189.494 84.4766C189.335 84.1716 189.112 83.9313 188.823 83.7557C188.538 83.58 188.204 83.4922 187.819 83.4922C187.401 83.4922 187.037 83.5949 186.725 83.8004C186.417 84.0026 186.178 84.2678 186.009 84.5959C185.844 84.9207 185.761 85.2737 185.761 85.6548V86.5249C185.761 87.0353 185.85 87.4695 186.029 87.8274C186.212 88.1854 186.465 88.4588 186.79 88.6477C187.115 88.8333 187.494 88.9261 187.928 88.9261C188.21 88.9261 188.467 88.8864 188.699 88.8068C188.931 88.724 189.132 88.6013 189.301 88.4389C189.47 88.2765 189.599 88.076 189.688 87.8374L191.095 88.0909C190.983 88.5052 190.78 88.8681 190.489 89.1797C190.2 89.4879 189.838 89.7282 189.4 89.9006C188.966 90.0696 188.47 90.1541 187.914 90.1541ZM198.561 84.228L197.214 84.4666C197.158 84.2943 197.068 84.1302 196.946 83.9744C196.826 83.8187 196.664 83.6911 196.458 83.5916C196.253 83.4922 195.996 83.4425 195.688 83.4425C195.267 83.4425 194.916 83.5369 194.634 83.7259C194.352 83.9115 194.211 84.1518 194.211 84.4467C194.211 84.7019 194.306 84.9074 194.495 85.0632C194.684 85.219 194.989 85.3466 195.409 85.446L196.623 85.7244C197.325 85.8868 197.849 86.1371 198.194 86.4751C198.538 86.8132 198.711 87.2524 198.711 87.7926C198.711 88.25 198.578 88.6577 198.313 89.0156C198.051 89.3703 197.685 89.6487 197.214 89.8509C196.747 90.053 196.205 90.1541 195.588 90.1541C194.733 90.1541 194.036 89.9718 193.495 89.6072C192.955 89.2393 192.624 88.7173 192.501 88.0412L193.938 87.8224C194.027 88.197 194.211 88.4804 194.49 88.6726C194.768 88.8615 195.131 88.956 195.578 88.956C196.066 88.956 196.455 88.8549 196.747 88.6527C197.038 88.4472 197.184 88.197 197.184 87.902C197.184 87.6634 197.095 87.4628 196.916 87.3004C196.74 87.138 196.47 87.0154 196.105 86.9325L194.813 86.6491C194.1 86.4867 193.573 86.2282 193.232 85.8736C192.894 85.5189 192.725 85.0698 192.725 84.5263C192.725 84.0755 192.851 83.6811 193.103 83.343C193.355 83.005 193.703 82.7415 194.147 82.5526C194.591 82.3603 195.1 82.2642 195.673 82.2642C196.498 82.2642 197.148 82.4432 197.622 82.8011C198.096 83.1558 198.409 83.6314 198.561 84.228ZM206.067 84.228L204.72 84.4666C204.664 84.2943 204.574 84.1302 204.452 83.9744C204.332 83.8187 204.17 83.6911 203.964 83.5916C203.759 83.4922 203.502 83.4425 203.194 83.4425C202.773 83.4425 202.421 83.5369 202.14 83.7259C201.858 83.9115 201.717 84.1518 201.717 84.4467C201.717 84.7019 201.812 84.9074 202.001 85.0632C202.189 85.219 202.494 85.3466 202.915 85.446L204.128 85.7244C204.831 85.8868 205.355 86.1371 205.699 86.4751C206.044 86.8132 206.216 87.2524 206.216 87.7926C206.216 88.25 206.084 88.6577 205.819 89.0156C205.557 89.3703 205.191 89.6487 204.72 89.8509C204.253 90.053 203.711 90.1541 203.094 90.1541C202.239 90.1541 201.541 89.9718 201.001 89.6072C200.461 89.2393 200.13 88.7173 200.007 88.0412L201.444 87.8224C201.533 88.197 201.717 88.4804 201.996 88.6726C202.274 88.8615 202.637 88.956 203.084 88.956C203.572 88.956 203.961 88.8549 204.253 88.6527C204.544 88.4472 204.69 88.197 204.69 87.902C204.69 87.6634 204.601 87.4628 204.422 87.3004C204.246 87.138 203.976 87.0154 203.611 86.9325L202.319 86.6491C201.606 86.4867 201.079 86.2282 200.738 85.8736C200.4 85.5189 200.231 85.0698 200.231 84.5263C200.231 84.0755 200.357 83.6811 200.608 83.343C200.86 83.005 201.208 82.7415 201.653 82.5526C202.097 82.3603 202.605 82.2642 203.179 82.2642C204.004 82.2642 204.654 82.4432 205.128 82.8011C205.602 83.1558 205.915 83.6314 206.067 84.228ZM207.851 90V82.3636H209.337V90H207.851ZM208.602 81.1854C208.343 81.1854 208.121 81.0992 207.935 80.9268C207.753 80.7512 207.662 80.5424 207.662 80.3004C207.662 80.0552 207.753 79.8464 207.935 79.674C208.121 79.4983 208.343 79.4105 208.602 79.4105C208.86 79.4105 209.08 79.4983 209.263 79.674C209.448 79.8464 209.541 80.0552 209.541 80.3004C209.541 80.5424 209.448 80.7512 209.263 80.9268C209.08 81.0992 208.86 81.1854 208.602 81.1854ZM211.456 90V79.8182H212.943V83.6016H213.032C213.119 83.4425 213.243 83.2585 213.405 83.0497C213.568 82.8409 213.793 82.6586 214.081 82.5028C214.37 82.3438 214.751 82.2642 215.225 82.2642C215.841 82.2642 216.392 82.42 216.876 82.7315C217.359 83.0431 217.739 83.4922 218.014 84.0788C218.292 84.6655 218.432 85.3714 218.432 86.1967C218.432 87.022 218.294 87.7296 218.019 88.3196C217.744 88.9062 217.366 89.3587 216.885 89.6768C216.405 89.9917 215.856 90.1491 215.24 90.1491C214.776 90.1491 214.396 90.0713 214.101 89.9155C213.81 89.7597 213.581 89.5774 213.415 89.3686C213.25 89.1598 213.122 88.9742 213.032 88.8118H212.908V90H211.456ZM212.913 86.1818C212.913 86.7187 212.991 87.1894 213.147 87.5938C213.303 87.9981 213.528 88.3146 213.823 88.5433C214.118 88.7687 214.479 88.8814 214.907 88.8814C215.351 88.8814 215.722 88.7637 216.02 88.5284C216.319 88.2898 216.544 87.9666 216.697 87.5589C216.852 87.1513 216.93 86.6922 216.93 86.1818C216.93 85.678 216.854 85.2256 216.702 84.8246C216.552 84.4235 216.327 84.107 216.025 83.875C215.727 83.643 215.354 83.527 214.907 83.527C214.476 83.527 214.111 83.638 213.813 83.8601C213.518 84.0821 213.294 84.392 213.142 84.7898C212.989 85.1875 212.913 85.6515 212.913 86.1818ZM220.101 90V82.3636H221.587V90H220.101ZM220.852 81.1854C220.593 81.1854 220.371 81.0992 220.185 80.9268C220.003 80.7512 219.912 80.5424 219.912 80.3004C219.912 80.0552 220.003 79.8464 220.185 79.674C220.371 79.4983 220.593 79.4105 220.852 79.4105C221.11 79.4105 221.33 79.4983 221.513 79.674C221.698 79.8464 221.791 80.0552 221.791 80.3004C221.791 80.5424 221.698 80.7512 221.513 80.9268C221.33 81.0992 221.11 81.1854 220.852 81.1854ZM225.074 79.8182V90H223.587V79.8182H225.074ZM227.074 90V82.3636H228.56V90H227.074ZM227.824 81.1854C227.566 81.1854 227.344 81.0992 227.158 80.9268C226.976 80.7512 226.885 80.5424 226.885 80.3004C226.885 80.0552 226.976 79.8464 227.158 79.674C227.344 79.4983 227.566 79.4105 227.824 79.4105C228.083 79.4105 228.303 79.4983 228.485 79.674C228.671 79.8464 228.764 80.0552 228.764 80.3004C228.764 80.5424 228.671 80.7512 228.485 80.9268C228.303 81.0992 228.083 81.1854 227.824 81.1854ZM233.419 90.1491C232.802 90.1491 232.252 89.9917 231.768 89.6768C231.287 89.3587 230.91 88.9062 230.634 88.3196C230.363 87.7296 230.227 87.022 230.227 86.1967C230.227 85.3714 230.364 84.6655 230.639 84.0788C230.918 83.4922 231.299 83.0431 231.783 82.7315C232.267 82.42 232.815 82.2642 233.428 82.2642C233.902 82.2642 234.284 82.3438 234.572 82.5028C234.864 82.6586 235.089 82.8409 235.248 83.0497C235.41 83.2585 235.536 83.4425 235.626 83.6016H235.715V79.8182H237.202V90H235.75V88.8118H235.626C235.536 88.9742 235.407 89.1598 235.238 89.3686C235.072 89.5774 234.844 89.7597 234.552 89.9155C234.26 90.0713 233.883 90.1491 233.419 90.1491ZM233.747 88.8814C234.174 88.8814 234.535 88.7687 234.83 88.5433C235.129 88.3146 235.354 87.9981 235.507 87.5938C235.662 87.1894 235.74 86.7187 235.74 86.1818C235.74 85.6515 235.664 85.1875 235.512 84.7898C235.359 84.392 235.135 84.0821 234.84 83.8601C234.545 83.638 234.181 83.527 233.747 83.527C233.299 83.527 232.926 83.643 232.628 83.875C232.33 84.107 232.104 84.4235 231.952 84.8246C231.803 85.2256 231.728 85.678 231.728 86.1818C231.728 86.6922 231.804 87.1513 231.957 87.5589C232.109 87.9666 232.335 88.2898 232.633 88.5284C232.935 88.7637 233.306 88.8814 233.747 88.8814ZM241.546 90.169C241.062 90.169 240.624 90.0795 240.233 89.9006C239.842 89.7183 239.532 89.4548 239.304 89.1101C239.078 88.7654 238.966 88.3428 238.966 87.8423C238.966 87.4115 239.048 87.0568 239.214 86.7784C239.38 86.5 239.604 86.2796 239.885 86.1172C240.167 85.9548 240.482 85.8321 240.83 85.7493C241.178 85.6664 241.533 85.6035 241.894 85.5604C242.351 85.5073 242.722 85.4643 243.007 85.4311C243.292 85.3946 243.5 85.3366 243.629 85.2571C243.758 85.1776 243.823 85.0483 243.823 84.8693V84.8345C243.823 84.4003 243.7 84.0639 243.455 83.8253C243.213 83.5866 242.852 83.4673 242.371 83.4673C241.871 83.4673 241.476 83.5784 241.188 83.8004C240.903 84.0192 240.706 84.2628 240.596 84.5312L239.199 84.2131C239.365 83.7491 239.607 83.3745 239.925 83.0895C240.247 82.8011 240.616 82.5923 241.034 82.4631C241.451 82.3305 241.891 82.2642 242.351 82.2642C242.656 82.2642 242.979 82.3007 243.321 82.3736C243.665 82.4432 243.987 82.5724 244.285 82.7614C244.587 82.9503 244.834 83.2204 245.026 83.5717C245.218 83.9197 245.314 84.3722 245.314 84.929V90H243.863V88.956H243.803C243.707 89.1482 243.563 89.3371 243.37 89.5227C243.178 89.7083 242.931 89.8625 242.63 89.9851C242.328 90.1077 241.967 90.169 241.546 90.169ZM241.869 88.9759C242.28 88.9759 242.631 88.8946 242.923 88.7322C243.218 88.5698 243.442 88.3577 243.594 88.0959C243.75 87.8307 243.828 87.5473 243.828 87.2457V86.2614C243.775 86.3144 243.672 86.3641 243.52 86.4105C243.37 86.4536 243.2 86.4917 243.007 86.5249C242.815 86.5547 242.628 86.5829 242.446 86.6094C242.263 86.6326 242.111 86.6525 241.988 86.669C241.7 86.7055 241.436 86.7668 241.198 86.853C240.962 86.9392 240.774 87.0634 240.631 87.2259C240.492 87.3849 240.422 87.5971 240.422 87.8622C240.422 88.2301 240.558 88.5085 240.83 88.6974C241.102 88.883 241.448 88.9759 241.869 88.9759ZM250.153 90.1491C249.536 90.1491 248.986 89.9917 248.502 89.6768C248.022 89.3587 247.644 88.9062 247.369 88.3196C247.097 87.7296 246.961 87.022 246.961 86.1967C246.961 85.3714 247.099 84.6655 247.374 84.0788C247.652 83.4922 248.033 83.0431 248.517 82.7315C249.001 82.42 249.55 82.2642 250.163 82.2642C250.637 82.2642 251.018 82.3438 251.306 82.5028C251.598 82.6586 251.823 82.8409 251.982 83.0497C252.145 83.2585 252.271 83.4425 252.36 83.6016H252.45V79.8182H253.936V90H252.485V88.8118H252.36C252.271 88.9742 252.142 89.1598 251.972 89.3686C251.807 89.5774 251.578 89.7597 251.286 89.9155C250.995 90.0713 250.617 90.1491 250.153 90.1491ZM250.481 88.8814C250.909 88.8814 251.27 88.7687 251.565 88.5433C251.863 88.3146 252.088 87.9981 252.241 87.5938C252.397 87.1894 252.475 86.7187 252.475 86.1818C252.475 85.6515 252.398 85.1875 252.246 84.7898C252.093 84.392 251.87 84.0821 251.575 83.8601C251.28 83.638 250.915 83.527 250.481 83.527C250.034 83.527 249.661 83.643 249.362 83.875C249.064 84.107 248.839 84.4235 248.686 84.8246C248.537 85.2256 248.463 85.678 248.463 86.1818C248.463 86.6922 248.539 87.1513 248.691 87.5589C248.844 87.9666 249.069 88.2898 249.367 88.5284C249.669 88.7637 250.04 88.8814 250.481 88.8814ZM259.349 90.1541C258.597 90.1541 257.949 89.9934 257.405 89.6719C256.865 89.3471 256.447 88.8913 256.152 88.3047C255.861 87.7147 255.715 87.0237 255.715 86.2315C255.715 85.4493 255.861 84.7599 256.152 84.1634C256.447 83.5668 256.858 83.1011 257.385 82.7663C257.916 82.4316 258.535 82.2642 259.245 82.2642C259.676 82.2642 260.093 82.3355 260.498 82.478C260.902 82.6205 261.265 82.8442 261.586 83.1491C261.908 83.4541 262.161 83.8501 262.347 84.3374C262.533 84.8213 262.625 85.4096 262.625 86.1023V86.6293H256.555V85.5156H261.169C261.169 85.1245 261.089 84.7782 260.93 84.4766C260.771 84.1716 260.547 83.9313 260.259 83.7557C259.974 83.58 259.639 83.4922 259.255 83.4922C258.837 83.4922 258.472 83.5949 258.161 83.8004C257.853 84.0026 257.614 84.2678 257.445 84.5959C257.279 84.9207 257.196 85.2737 257.196 85.6548V86.5249C257.196 87.0353 257.286 87.4695 257.465 87.8274C257.647 88.1854 257.901 88.4588 258.225 88.6477C258.55 88.8333 258.93 88.9261 259.364 88.9261C259.646 88.9261 259.903 88.8864 260.135 88.8068C260.367 88.724 260.567 88.6013 260.736 88.4389C260.905 88.2765 261.034 88.076 261.124 87.8374L262.531 88.0909C262.418 88.5052 262.216 88.8681 261.924 89.1797C261.636 89.4879 261.273 89.7282 260.836 89.9006C260.401 90.0696 259.906 90.1541 259.349 90.1541Z" fill="white"/>
<defs>
<linearGradient id="paint0_linear_4_157" x1="-106.5" y1="-175.5" x2="156" y2="80.5" gradientUnits="userSpaceOnUse">
<stop stop-color="#0019FF"/>
<stop offset="1" stop-color="white"/>
</linearGradient>
</defs>
</svg>
