<svg width="602" height="272" viewBox="0 0 602 272" fill="none" xmlns="http://www.w3.org/2000/svg">
<rect width="602" height="272" rx="16" fill="#0019FF" fill-opacity="0.1"/>
<rect x="51" y="30" width="160" height="119" rx="12" fill="url(#paint0_linear_4_195)"/>
<rect x="123" y="54" width="227" height="26" rx="13" fill="#0019FF"/>
<path d="M142.119 72V61.8182H148.502V63.1406H143.655V66.2429H148.169V67.5604H143.655V70.6776H148.562V72H142.119ZM156.157 66.228L154.81 66.4666C154.753 66.2943 154.664 66.1302 154.541 65.9744C154.422 65.8187 154.26 65.6911 154.054 65.5916C153.849 65.4922 153.592 65.4425 153.284 65.4425C152.863 65.4425 152.511 65.5369 152.23 65.7259C151.948 65.9115 151.807 66.1518 151.807 66.4467C151.807 66.7019 151.901 66.9074 152.09 67.0632C152.279 67.219 152.584 67.3466 153.005 67.446L154.218 67.7244C154.921 67.8868 155.445 68.1371 155.789 68.4751C156.134 68.8132 156.306 69.2524 156.306 69.7926C156.306 70.25 156.174 70.6577 155.909 71.0156C155.647 71.3703 155.28 71.6487 154.81 71.8509C154.343 72.053 153.801 72.1541 153.184 72.1541C152.329 72.1541 151.631 71.9718 151.091 71.6072C150.551 71.2393 150.219 70.7173 150.097 70.0412L151.534 69.8224C151.623 70.197 151.807 70.4804 152.085 70.6726C152.364 70.8615 152.727 70.956 153.174 70.956C153.661 70.956 154.051 70.8549 154.343 70.6527C154.634 70.4472 154.78 70.197 154.78 69.902C154.78 69.6634 154.691 69.4628 154.512 69.3004C154.336 69.138 154.066 69.0154 153.701 68.9325L152.409 68.6491C151.696 68.4867 151.169 68.2282 150.828 67.8736C150.49 67.5189 150.32 67.0698 150.32 66.5263C150.32 66.0755 150.446 65.6811 150.698 65.343C150.95 65.005 151.298 64.7415 151.742 64.5526C152.186 64.3603 152.695 64.2642 153.269 64.2642C154.094 64.2642 154.744 64.4432 155.218 64.8011C155.691 65.1558 156.005 65.6314 156.157 66.228ZM161.505 64.3636V65.5568H157.334V64.3636H161.505ZM158.453 62.5341H159.939V69.7578C159.939 70.0462 159.982 70.2633 160.069 70.4091C160.155 70.5516 160.266 70.6494 160.402 70.7024C160.541 70.7521 160.692 70.777 160.854 70.777C160.973 70.777 161.078 70.7687 161.167 70.7521C161.257 70.7356 161.326 70.7223 161.376 70.7124L161.645 71.9403C161.558 71.9735 161.436 72.0066 161.277 72.0398C161.118 72.0762 160.919 72.0961 160.68 72.0994C160.289 72.1061 159.924 72.0365 159.586 71.8906C159.248 71.7448 158.975 71.5194 158.766 71.2145C158.557 70.9096 158.453 70.5268 158.453 70.0661V62.5341ZM163.15 72V64.3636H164.636V72H163.15ZM163.9 63.1854C163.642 63.1854 163.42 63.0992 163.234 62.9268C163.052 62.7512 162.961 62.5424 162.961 62.3004C162.961 62.0552 163.052 61.8464 163.234 61.674C163.42 61.4983 163.642 61.4105 163.9 61.4105C164.159 61.4105 164.379 61.4983 164.562 61.674C164.747 61.8464 164.84 62.0552 164.84 62.3004C164.84 62.5424 164.747 62.7512 164.562 62.9268C164.379 63.0992 164.159 63.1854 163.9 63.1854ZM168.123 61.8182V72H166.636V61.8182H168.123ZM170.122 72V64.3636H171.609V72H170.122ZM170.873 63.1854C170.615 63.1854 170.392 63.0992 170.207 62.9268C170.025 62.7512 169.933 62.5424 169.933 62.3004C169.933 62.0552 170.025 61.8464 170.207 61.674C170.392 61.4983 170.615 61.4105 170.873 61.4105C171.132 61.4105 171.352 61.4983 171.534 61.674C171.72 61.8464 171.813 62.0552 171.813 62.3004C171.813 62.5424 171.72 62.7512 171.534 62.9268C171.352 63.0992 171.132 63.1854 170.873 63.1854ZM173.45 72V70.9808L177.586 65.7259V65.6562H173.584V64.3636H179.44V65.4474L175.463 70.6378V70.7074H179.58V72H173.45ZM183.556 72.169C183.072 72.169 182.634 72.0795 182.243 71.9006C181.852 71.7183 181.542 71.4548 181.313 71.1101C181.088 70.7654 180.975 70.3428 180.975 69.8423C180.975 69.4115 181.058 69.0568 181.224 68.7784C181.39 68.5 181.613 68.2796 181.895 68.1172C182.177 67.9548 182.492 67.8321 182.84 67.7493C183.188 67.6664 183.542 67.6035 183.904 67.5604C184.361 67.5073 184.732 67.4643 185.017 67.4311C185.302 67.3946 185.509 67.3366 185.639 67.2571C185.768 67.1776 185.833 67.0483 185.833 66.8693V66.8345C185.833 66.4003 185.71 66.0639 185.465 65.8253C185.223 65.5866 184.861 65.4673 184.381 65.4673C183.88 65.4673 183.486 65.5784 183.198 65.8004C182.913 66.0192 182.715 66.2628 182.606 66.5312L181.209 66.2131C181.375 65.7491 181.617 65.3745 181.935 65.0895C182.256 64.8011 182.626 64.5923 183.044 64.4631C183.461 64.3305 183.9 64.2642 184.361 64.2642C184.666 64.2642 184.989 64.3007 185.33 64.3736C185.675 64.4432 185.997 64.5724 186.295 64.7614C186.597 64.9503 186.843 65.2204 187.036 65.5717C187.228 65.9197 187.324 66.3722 187.324 66.929V72H185.872V70.956H185.813C185.717 71.1482 185.572 71.3371 185.38 71.5227C185.188 71.7083 184.941 71.8625 184.639 71.9851C184.338 72.1077 183.977 72.169 183.556 72.169ZM183.879 70.9759C184.29 70.9759 184.641 70.8946 184.933 70.7322C185.228 70.5698 185.451 70.3577 185.604 70.0959C185.76 69.8307 185.838 69.5473 185.838 69.2457V68.2614C185.785 68.3144 185.682 68.3641 185.529 68.4105C185.38 68.4536 185.209 68.4917 185.017 68.5249C184.825 68.5547 184.638 68.5829 184.455 68.6094C184.273 68.6326 184.121 68.6525 183.998 68.669C183.71 68.7055 183.446 68.7668 183.208 68.853C182.972 68.9392 182.783 69.0634 182.641 69.2259C182.502 69.3849 182.432 69.5971 182.432 69.8622C182.432 70.2301 182.568 70.5085 182.84 70.6974C183.111 70.883 183.458 70.9759 183.879 70.9759ZM192.521 72.1541C191.781 72.1541 191.145 71.9867 190.612 71.652C190.081 71.3139 189.674 70.8482 189.388 70.255C189.103 69.6617 188.961 68.9822 188.961 68.2166C188.961 67.4411 189.107 66.7566 189.398 66.1634C189.69 65.5668 190.101 65.1011 190.631 64.7663C191.162 64.4316 191.786 64.2642 192.506 64.2642C193.086 64.2642 193.603 64.3719 194.057 64.5874C194.511 64.7995 194.877 65.0978 195.156 65.4822C195.437 65.8667 195.605 66.3158 195.658 66.8295H194.211C194.131 66.4716 193.949 66.1634 193.664 65.9048C193.382 65.6463 193.004 65.517 192.531 65.517C192.116 65.517 191.753 65.6264 191.442 65.8452C191.134 66.0606 190.893 66.3688 190.721 66.7699C190.549 67.1676 190.462 67.6383 190.462 68.1818C190.462 68.7386 190.547 69.2192 190.716 69.6236C190.885 70.0279 191.124 70.3411 191.432 70.5632C191.743 70.7853 192.11 70.8963 192.531 70.8963C192.812 70.8963 193.067 70.8449 193.296 70.7422C193.528 70.6361 193.722 70.4853 193.878 70.2898C194.037 70.0942 194.148 69.8589 194.211 69.5838H195.658C195.605 70.0777 195.444 70.5185 195.175 70.9062C194.907 71.294 194.547 71.599 194.097 71.821C193.649 72.0431 193.124 72.1541 192.521 72.1541ZM191.984 71.9602H192.958L192.879 72.3679C193.167 72.4143 193.419 72.5303 193.634 72.7159C193.85 72.9015 193.957 73.1816 193.957 73.5561C193.961 74.0036 193.767 74.3665 193.376 74.6449C192.988 74.9233 192.426 75.0625 191.69 75.0625L191.661 74.2322C192.005 74.2322 192.284 74.1825 192.496 74.0831C192.711 73.9837 192.821 73.8229 192.824 73.6009C192.827 73.3788 192.744 73.223 192.575 73.1335C192.41 73.044 192.144 72.9811 191.78 72.9446L191.984 71.9602ZM199.47 72.169C198.986 72.169 198.548 72.0795 198.157 71.9006C197.766 71.7183 197.456 71.4548 197.227 71.1101C197.002 70.7654 196.889 70.3428 196.889 69.8423C196.889 69.4115 196.972 69.0568 197.138 68.7784C197.304 68.5 197.527 68.2796 197.809 68.1172C198.091 67.9548 198.406 67.8321 198.754 67.7493C199.102 67.6664 199.456 67.6035 199.818 67.5604C200.275 67.5073 200.646 67.4643 200.931 67.4311C201.216 67.3946 201.423 67.3366 201.553 67.2571C201.682 67.1776 201.747 67.0483 201.747 66.8693V66.8345C201.747 66.4003 201.624 66.0639 201.379 65.8253C201.137 65.5866 200.776 65.4673 200.295 65.4673C199.794 65.4673 199.4 65.5784 199.112 65.8004C198.827 66.0192 198.629 66.2628 198.52 66.5312L197.123 66.2131C197.289 65.7491 197.531 65.3745 197.849 65.0895C198.17 64.8011 198.54 64.5923 198.958 64.4631C199.375 64.3305 199.814 64.2642 200.275 64.2642C200.58 64.2642 200.903 64.3007 201.244 64.3736C201.589 64.4432 201.911 64.5724 202.209 64.7614C202.511 64.9503 202.758 65.2204 202.95 65.5717C203.142 65.9197 203.238 66.3722 203.238 66.929V72H201.786V70.956H201.727C201.631 71.1482 201.486 71.3371 201.294 71.5227C201.102 71.7083 200.855 71.8625 200.553 71.9851C200.252 72.1077 199.891 72.169 199.47 72.169ZM199.793 70.9759C200.204 70.9759 200.555 70.8946 200.847 70.7322C201.142 70.5698 201.365 70.3577 201.518 70.0959C201.674 69.8307 201.752 69.5473 201.752 69.2457V68.2614C201.699 68.3144 201.596 68.3641 201.443 68.4105C201.294 68.4536 201.124 68.4917 200.931 68.5249C200.739 68.5547 200.552 68.5829 200.369 68.6094C200.187 68.6326 200.035 68.6525 199.912 68.669C199.624 68.7055 199.36 68.7668 199.122 68.853C198.886 68.9392 198.697 69.0634 198.555 69.2259C198.416 69.3849 198.346 69.5971 198.346 69.8622C198.346 70.2301 198.482 70.5085 198.754 70.6974C199.026 70.883 199.372 70.9759 199.793 70.9759ZM198.858 63.4389L197.859 63.4091C197.859 62.8589 198.006 62.4197 198.301 62.0916C198.6 61.7635 198.968 61.5994 199.405 61.5994C199.607 61.5994 199.785 61.6342 199.937 61.7038C200.089 61.7701 200.232 61.848 200.365 61.9375C200.5 62.0237 200.635 62.1016 200.767 62.1712C200.903 62.2375 201.054 62.2706 201.22 62.2706C201.412 62.2706 201.568 62.1977 201.687 62.0518C201.81 61.906 201.871 61.7254 201.871 61.5099L202.85 61.5746C202.85 62.1281 202.701 62.5639 202.403 62.8821C202.105 63.197 201.738 63.3561 201.304 63.3594C201.069 63.3594 200.873 63.3262 200.718 63.2599C200.565 63.1903 200.429 63.1125 200.31 63.0263C200.191 62.9368 200.068 62.8572 199.942 62.7876C199.816 62.718 199.665 62.6832 199.49 62.6832C199.304 62.6832 199.151 62.7562 199.032 62.902C198.916 63.0445 198.858 63.2235 198.858 63.4389ZM208.435 72.1541C207.719 72.1541 207.094 71.9901 206.56 71.6619C206.027 71.3338 205.612 70.8748 205.317 70.2848C205.022 69.6948 204.875 69.0054 204.875 68.2166C204.875 67.4245 205.022 66.7318 205.317 66.1385C205.612 65.5452 206.027 65.0845 206.56 64.7564C207.094 64.4283 207.719 64.2642 208.435 64.2642C209.151 64.2642 209.775 64.4283 210.309 64.7564C210.843 65.0845 211.257 65.5452 211.552 66.1385C211.847 66.7318 211.994 67.4245 211.994 68.2166C211.994 69.0054 211.847 69.6948 211.552 70.2848C211.257 70.8748 210.843 71.3338 210.309 71.6619C209.775 71.9901 209.151 72.1541 208.435 72.1541ZM208.44 70.9062C208.904 70.9062 209.288 70.7836 209.593 70.5384C209.898 70.2931 210.123 69.9666 210.269 69.5589C210.418 69.1513 210.493 68.7022 210.493 68.2116C210.493 67.7244 210.418 67.277 210.269 66.8693C210.123 66.4583 209.898 66.1286 209.593 65.88C209.288 65.6314 208.904 65.5071 208.44 65.5071C207.972 65.5071 207.585 65.6314 207.276 65.88C206.971 66.1286 206.744 66.4583 206.595 66.8693C206.449 67.277 206.376 67.7244 206.376 68.2116C206.376 68.7022 206.449 69.1513 206.595 69.5589C206.744 69.9666 206.971 70.2931 207.276 70.5384C207.585 70.7836 207.972 70.9062 208.44 70.9062ZM219.581 72.169C219.097 72.169 218.66 72.0795 218.268 71.9006C217.877 71.7183 217.567 71.4548 217.339 71.1101C217.113 70.7654 217.001 70.3428 217.001 69.8423C217.001 69.4115 217.084 69.0568 217.249 68.7784C217.415 68.5 217.639 68.2796 217.92 68.1172C218.202 67.9548 218.517 67.8321 218.865 67.7493C219.213 67.6664 219.568 67.6035 219.929 67.5604C220.386 67.5073 220.758 67.4643 221.043 67.4311C221.328 67.3946 221.535 67.3366 221.664 67.2571C221.793 67.1776 221.858 67.0483 221.858 66.8693V66.8345C221.858 66.4003 221.735 66.0639 221.49 65.8253C221.248 65.5866 220.887 65.4673 220.406 65.4673C219.906 65.4673 219.511 65.5784 219.223 65.8004C218.938 66.0192 218.741 66.2628 218.631 66.5312L217.234 66.2131C217.4 65.7491 217.642 65.3745 217.96 65.0895C218.282 64.8011 218.651 64.5923 219.069 64.4631C219.487 64.3305 219.926 64.2642 220.386 64.2642C220.691 64.2642 221.014 64.3007 221.356 64.3736C221.701 64.4432 222.022 64.5724 222.32 64.7614C222.622 64.9503 222.869 65.2204 223.061 65.5717C223.253 65.9197 223.349 66.3722 223.349 66.929V72H221.898V70.956H221.838C221.742 71.1482 221.598 71.3371 221.406 71.5227C221.213 71.7083 220.966 71.8625 220.665 71.9851C220.363 72.1077 220.002 72.169 219.581 72.169ZM219.904 70.9759C220.315 70.9759 220.666 70.8946 220.958 70.7322C221.253 70.5698 221.477 70.3577 221.629 70.0959C221.785 69.8307 221.863 69.5473 221.863 69.2457V68.2614C221.81 68.3144 221.707 68.3641 221.555 68.4105C221.406 68.4536 221.235 68.4917 221.043 68.5249C220.85 68.5547 220.663 68.5829 220.481 68.6094C220.299 68.6326 220.146 68.6525 220.023 68.669C219.735 68.7055 219.472 68.7668 219.233 68.853C218.998 68.9392 218.809 69.0634 218.666 69.2259C218.527 69.3849 218.457 69.5971 218.457 69.8622C218.457 70.2301 218.593 70.5085 218.865 70.6974C219.137 70.883 219.483 70.9759 219.904 70.9759ZM219.849 63.3445L221.013 61.0526H222.579L221.038 63.3445H219.849ZM228.531 75.0227C227.925 75.0227 227.403 74.9432 226.965 74.7841C226.531 74.625 226.176 74.4145 225.901 74.1527C225.626 73.8909 225.421 73.6042 225.285 73.2926L226.562 72.7656C226.652 72.9115 226.771 73.0656 226.92 73.228C227.073 73.3937 227.278 73.5346 227.537 73.6506C227.799 73.7666 228.135 73.8246 228.546 73.8246C229.109 73.8246 229.575 73.687 229.943 73.4119C230.311 73.1402 230.495 72.706 230.495 72.1094V70.608H230.4C230.311 70.7704 230.182 70.951 230.013 71.1499C229.847 71.3487 229.618 71.5211 229.327 71.6669C229.035 71.8127 228.655 71.8857 228.188 71.8857C227.585 71.8857 227.041 71.7448 226.557 71.4631C226.077 71.178 225.696 70.7588 225.414 70.2053C225.135 69.6484 224.996 68.964 224.996 68.152C224.996 67.34 225.134 66.6439 225.409 66.0639C225.687 65.4839 226.068 65.0398 226.552 64.7315C227.036 64.42 227.585 64.2642 228.198 64.2642C228.672 64.2642 229.055 64.3438 229.346 64.5028C229.638 64.6586 229.865 64.8409 230.028 65.0497C230.193 65.2585 230.321 65.4425 230.41 65.6016H230.52V64.3636H231.976V72.169C231.976 72.8253 231.824 73.3639 231.519 73.7848C231.214 74.2057 230.801 74.5173 230.281 74.7195C229.764 74.9216 229.181 75.0227 228.531 75.0227ZM228.516 70.6527C228.944 70.6527 229.305 70.5533 229.6 70.3544C229.898 70.1522 230.124 69.8639 230.276 69.4893C230.432 69.1115 230.51 68.6591 230.51 68.1321C230.51 67.6184 230.434 67.166 230.281 66.7749C230.129 66.3838 229.905 66.0788 229.61 65.8601C229.315 65.638 228.95 65.527 228.516 65.527C228.069 65.527 227.696 65.643 227.398 65.875C227.099 66.1037 226.874 66.4152 226.721 66.8097C226.572 67.2041 226.498 67.6449 226.498 68.1321C226.498 68.6326 226.574 69.0717 226.726 69.4496C226.879 69.8274 227.104 70.1224 227.403 70.3345C227.704 70.5466 228.075 70.6527 228.516 70.6527ZM233.97 72V64.3636H235.456V72H233.97ZM234.721 63.1854C234.462 63.1854 234.24 63.0992 234.055 62.9268C233.872 62.7512 233.781 62.5424 233.781 62.3004C233.781 62.0552 233.872 61.8464 234.055 61.674C234.24 61.4983 234.462 61.4105 234.721 61.4105C234.979 61.4105 235.2 61.4983 235.382 61.674C235.568 61.8464 235.66 62.0552 235.66 62.3004C235.66 62.5424 235.568 62.7512 235.382 62.9268C235.2 63.0992 234.979 63.1854 234.721 63.1854ZM238.943 61.8182V72H237.456V61.8182H238.943ZM247.864 72.1541C247.125 72.1541 246.489 71.9867 245.955 71.652C245.425 71.3139 245.017 70.8482 244.732 70.255C244.447 69.6617 244.305 68.9822 244.305 68.2166C244.305 67.4411 244.451 66.7566 244.742 66.1634C245.034 65.5668 245.445 65.1011 245.975 64.7663C246.505 64.4316 247.13 64.2642 247.849 64.2642C248.429 64.2642 248.946 64.3719 249.401 64.5874C249.855 64.7995 250.221 65.0978 250.499 65.4822C250.781 65.8667 250.948 66.3158 251.001 66.8295H249.555C249.475 66.4716 249.293 66.1634 249.008 65.9048C248.726 65.6463 248.348 65.517 247.874 65.517C247.46 65.517 247.097 65.6264 246.786 65.8452C246.477 66.0606 246.237 66.3688 246.065 66.7699C245.892 67.1676 245.806 67.6383 245.806 68.1818C245.806 68.7386 245.891 69.2192 246.06 69.6236C246.229 70.0279 246.467 70.3411 246.776 70.5632C247.087 70.7853 247.453 70.8963 247.874 70.8963C248.156 70.8963 248.411 70.8449 248.64 70.7422C248.872 70.6361 249.066 70.4853 249.222 70.2898C249.381 70.0942 249.492 69.8589 249.555 69.5838H251.001C250.948 70.0777 250.788 70.5185 250.519 70.9062C250.251 71.294 249.891 71.599 249.44 71.821C248.993 72.0431 248.468 72.1541 247.864 72.1541ZM255.808 72.1541C255.092 72.1541 254.467 71.9901 253.933 71.6619C253.4 71.3338 252.985 70.8748 252.691 70.2848C252.396 69.6948 252.248 69.0054 252.248 68.2166C252.248 67.4245 252.396 66.7318 252.691 66.1385C252.985 65.5452 253.4 65.0845 253.933 64.7564C254.467 64.4283 255.092 64.2642 255.808 64.2642C256.524 64.2642 257.148 64.4283 257.682 64.7564C258.216 65.0845 258.63 65.5452 258.925 66.1385C259.22 66.7318 259.367 67.4245 259.367 68.2166C259.367 69.0054 259.22 69.6948 258.925 70.2848C258.63 70.8748 258.216 71.3338 257.682 71.6619C257.148 71.9901 256.524 72.1541 255.808 72.1541ZM255.813 70.9062C256.277 70.9062 256.661 70.7836 256.966 70.5384C257.271 70.2931 257.496 69.9666 257.642 69.5589C257.791 69.1513 257.866 68.7022 257.866 68.2116C257.866 67.7244 257.791 67.277 257.642 66.8693C257.496 66.4583 257.271 66.1286 256.966 65.88C256.661 65.6314 256.277 65.5071 255.813 65.5071C255.345 65.5071 254.958 65.6314 254.649 65.88C254.344 66.1286 254.117 66.4583 253.968 66.8693C253.822 67.277 253.749 67.7244 253.749 68.2116C253.749 68.7022 253.822 69.1513 253.968 69.5589C254.117 69.9666 254.344 70.2931 254.649 70.5384C254.958 70.7836 255.345 70.9062 255.813 70.9062ZM261.027 72V64.3636H262.453V65.6065H262.548C262.707 65.1856 262.967 64.8575 263.328 64.6222C263.69 64.3835 264.122 64.2642 264.626 64.2642C265.136 64.2642 265.564 64.3835 265.909 64.6222C266.257 64.8608 266.514 65.1889 266.679 65.6065H266.759C266.941 65.1989 267.231 64.8741 267.629 64.6321C268.027 64.3868 268.501 64.2642 269.051 64.2642C269.743 64.2642 270.309 64.4813 270.746 64.9155C271.187 65.3497 271.407 66.0043 271.407 66.8793V72H269.921V67.0185C269.921 66.5014 269.78 66.1269 269.498 65.8949C269.217 65.6629 268.88 65.5469 268.489 65.5469C268.005 65.5469 267.629 65.696 267.36 65.9943C267.092 66.2893 266.958 66.6688 266.958 67.1328V72H265.476V66.924C265.476 66.5097 265.347 66.1766 265.088 65.9247C264.83 65.6728 264.493 65.5469 264.079 65.5469C263.797 65.5469 263.537 65.6214 263.299 65.7706C263.063 65.9164 262.873 66.1203 262.727 66.3821C262.584 66.6439 262.513 66.9472 262.513 67.2919V72H261.027ZM276.722 63.1406V61.8182H284.602V63.1406H281.425V72H279.894V63.1406H276.722ZM287.407 72.169C286.923 72.169 286.486 72.0795 286.095 71.9006C285.704 71.7183 285.394 71.4548 285.165 71.1101C284.94 70.7654 284.827 70.3428 284.827 69.8423C284.827 69.4115 284.91 69.0568 285.075 68.7784C285.241 68.5 285.465 68.2796 285.747 68.1172C286.028 67.9548 286.343 67.8321 286.691 67.7493C287.039 67.6664 287.394 67.6035 287.755 67.5604C288.213 67.5073 288.584 67.4643 288.869 67.4311C289.154 67.3946 289.361 67.3366 289.49 67.2571C289.619 67.1776 289.684 67.0483 289.684 66.8693V66.8345C289.684 66.4003 289.561 66.0639 289.316 65.8253C289.074 65.5866 288.713 65.4673 288.232 65.4673C287.732 65.4673 287.338 65.5784 287.049 65.8004C286.764 66.0192 286.567 66.2628 286.458 66.5312L285.061 66.2131C285.226 65.7491 285.468 65.3745 285.786 65.0895C286.108 64.8011 286.477 64.5923 286.895 64.4631C287.313 64.3305 287.752 64.2642 288.213 64.2642C288.517 64.2642 288.841 64.3007 289.182 64.3736C289.527 64.4432 289.848 64.5724 290.146 64.7614C290.448 64.9503 290.695 65.2204 290.887 65.5717C291.079 65.9197 291.176 66.3722 291.176 66.929V72H289.724V70.956H289.664C289.568 71.1482 289.424 71.3371 289.232 71.5227C289.039 71.7083 288.793 71.8625 288.491 71.9851C288.189 72.1077 287.828 72.169 287.407 72.169ZM287.73 70.9759C288.141 70.9759 288.493 70.8946 288.784 70.7322C289.079 70.5698 289.303 70.3577 289.455 70.0959C289.611 69.8307 289.689 69.5473 289.689 69.2457V68.2614C289.636 68.3144 289.533 68.3641 289.381 68.4105C289.232 68.4536 289.061 68.4917 288.869 68.5249C288.677 68.5547 288.489 68.5829 288.307 68.6094C288.125 68.6326 287.972 68.6525 287.85 68.669C287.561 68.7055 287.298 68.7668 287.059 68.853C286.824 68.9392 286.635 69.0634 286.492 69.2259C286.353 69.3849 286.284 69.5971 286.284 69.8622C286.284 70.2301 286.419 70.5085 286.691 70.6974C286.963 70.883 287.309 70.9759 287.73 70.9759ZM293.156 72V64.3636H294.642V72H293.156ZM293.906 63.1854C293.648 63.1854 293.426 63.0992 293.24 62.9268C293.058 62.7512 292.967 62.5424 292.967 62.3004C292.967 62.0552 293.058 61.8464 293.24 61.674C293.426 61.4983 293.648 61.4105 293.906 61.4105C294.165 61.4105 294.385 61.4983 294.567 61.674C294.753 61.8464 294.846 62.0552 294.846 62.3004C294.846 62.5424 294.753 62.7512 294.567 62.9268C294.385 63.0992 294.165 63.1854 293.906 63.1854ZM298.128 61.8182V72H296.642V61.8182H298.128ZM301.784 72L299.537 64.3636H301.073L302.569 69.9716H302.644L304.145 64.3636H305.681L307.173 69.9467H307.248L308.734 64.3636H310.27L308.028 72H306.512L304.961 66.4865H304.846L303.295 72H301.784ZM311.681 72V64.3636H313.167V72H311.681ZM312.432 63.1854C312.173 63.1854 311.951 63.0992 311.765 62.9268C311.583 62.7512 311.492 62.5424 311.492 62.3004C311.492 62.0552 311.583 61.8464 311.765 61.674C311.951 61.4983 312.173 61.4105 312.432 61.4105C312.69 61.4105 312.911 61.4983 313.093 61.674C313.278 61.8464 313.371 62.0552 313.371 62.3004C313.371 62.5424 313.278 62.7512 313.093 62.9268C312.911 63.0992 312.69 63.1854 312.432 63.1854ZM316.654 67.4659V72H315.167V64.3636H316.594V65.6065H316.689C316.864 65.2022 317.139 64.8774 317.514 64.6321C317.892 64.3868 318.367 64.2642 318.941 64.2642C319.461 64.2642 319.917 64.3736 320.308 64.5923C320.699 64.8078 321.002 65.1293 321.218 65.5568C321.433 65.9844 321.541 66.513 321.541 67.1428V72H320.054V67.3217C320.054 66.7682 319.91 66.3357 319.622 66.0241C319.333 65.7093 318.937 65.5518 318.434 65.5518C318.089 65.5518 317.782 65.6264 317.514 65.7756C317.249 65.9247 317.038 66.1435 316.882 66.4318C316.73 66.7169 316.654 67.0616 316.654 67.4659ZM326.393 72.1491C325.777 72.1491 325.226 71.9917 324.743 71.6768C324.262 71.3587 323.884 70.9062 323.609 70.3196C323.337 69.7296 323.201 69.022 323.201 68.1967C323.201 67.3714 323.339 66.6655 323.614 66.0788C323.892 65.4922 324.274 65.0431 324.757 64.7315C325.241 64.42 325.79 64.2642 326.403 64.2642C326.877 64.2642 327.258 64.3438 327.547 64.5028C327.838 64.6586 328.064 64.8409 328.223 65.0497C328.385 65.2585 328.511 65.4425 328.6 65.6016H328.69V61.8182H330.176V72H328.725V70.8118H328.6C328.511 70.9742 328.382 71.1598 328.213 71.3686C328.047 71.5774 327.818 71.7597 327.527 71.9155C327.235 72.0713 326.857 72.1491 326.393 72.1491ZM326.721 70.8814C327.149 70.8814 327.51 70.7687 327.805 70.5433C328.103 70.3146 328.329 69.9981 328.481 69.5938C328.637 69.1894 328.715 68.7187 328.715 68.1818C328.715 67.6515 328.639 67.1875 328.486 66.7898C328.334 66.392 328.11 66.0821 327.815 65.8601C327.52 65.638 327.155 65.527 326.721 65.527C326.274 65.527 325.901 65.643 325.603 65.875C325.304 66.107 325.079 66.4235 324.926 66.8246C324.777 67.2256 324.703 67.678 324.703 68.1818C324.703 68.6922 324.779 69.1513 324.931 69.5589C325.084 69.9666 325.309 70.2898 325.608 70.5284C325.909 70.7637 326.28 70.8814 326.721 70.8814Z" fill="white"/>
<rect x="70" y="107" width="227" height="26" rx="13" fill="#0019FF"/>
<path d="M100.672 117.493C100.619 117.022 100.4 116.658 100.016 116.399C99.6312 116.137 99.1473 116.006 98.5639 116.006C98.1463 116.006 97.785 116.073 97.4801 116.205C97.1752 116.335 96.9382 116.513 96.7692 116.742C96.6035 116.968 96.5206 117.224 96.5206 117.513C96.5206 117.755 96.5769 117.964 96.6896 118.139C96.8056 118.315 96.9564 118.462 97.142 118.582C97.331 118.698 97.5331 118.795 97.7486 118.875C97.964 118.951 98.1712 119.014 98.37 119.064L99.3643 119.322C99.6892 119.402 100.022 119.51 100.364 119.646C100.705 119.781 101.022 119.96 101.313 120.183C101.605 120.405 101.84 120.68 102.019 121.008C102.201 121.336 102.293 121.729 102.293 122.186C102.293 122.763 102.143 123.275 101.845 123.722C101.55 124.17 101.121 124.523 100.558 124.781C99.9974 125.04 99.3196 125.169 98.5241 125.169C97.7618 125.169 97.1023 125.048 96.5455 124.806C95.9886 124.564 95.5528 124.221 95.2379 123.777C94.9231 123.33 94.7491 122.799 94.7159 122.186H96.2571C96.2869 122.554 96.4063 122.861 96.6151 123.106C96.8272 123.348 97.0973 123.528 97.4254 123.648C97.7569 123.764 98.1198 123.822 98.5142 123.822C98.9484 123.822 99.3345 123.754 99.6726 123.618C100.014 123.479 100.282 123.286 100.478 123.041C100.674 122.793 100.771 122.503 100.771 122.171C100.771 121.87 100.685 121.623 100.513 121.43C100.344 121.238 100.113 121.079 99.8217 120.953C99.5334 120.827 99.2069 120.716 98.8423 120.62L97.6392 120.292C96.8239 120.07 96.1776 119.743 95.7003 119.312C95.2263 118.882 94.9893 118.312 94.9893 117.602C94.9893 117.016 95.1484 116.504 95.4666 116.066C95.7848 115.629 96.2157 115.289 96.7592 115.047C97.3028 114.802 97.916 114.679 98.5987 114.679C99.2881 114.679 99.8963 114.8 100.423 115.042C100.954 115.284 101.371 115.617 101.676 116.041C101.981 116.462 102.14 116.946 102.153 117.493H100.672ZM104.128 125V114.818H110.512V116.141H105.665V119.243H110.179V120.56H105.665V123.678H110.572V125H104.128ZM121.408 119.909C121.408 120.996 121.21 121.931 120.812 122.713C120.414 123.492 119.869 124.092 119.176 124.513C118.487 124.93 117.703 125.139 116.825 125.139C115.943 125.139 115.156 124.93 114.463 124.513C113.774 124.092 113.23 123.49 112.832 122.708C112.435 121.926 112.236 120.993 112.236 119.909C112.236 118.822 112.435 117.889 112.832 117.11C113.23 116.328 113.774 115.728 114.463 115.31C115.156 114.889 115.943 114.679 116.825 114.679C117.703 114.679 118.487 114.889 119.176 115.31C119.869 115.728 120.414 116.328 120.812 117.11C121.21 117.889 121.408 118.822 121.408 119.909ZM119.887 119.909C119.887 119.08 119.753 118.383 119.484 117.816C119.219 117.246 118.855 116.815 118.391 116.523C117.93 116.228 117.408 116.081 116.825 116.081C116.238 116.081 115.714 116.228 115.254 116.523C114.793 116.815 114.428 117.246 114.16 117.816C113.895 118.383 113.762 119.08 113.762 119.909C113.762 120.738 113.895 121.437 114.16 122.007C114.428 122.574 114.793 123.005 115.254 123.3C115.714 123.591 116.238 123.737 116.825 123.737C117.408 123.737 117.93 123.591 118.391 123.3C118.855 123.005 119.219 122.574 119.484 122.007C119.753 121.437 119.887 120.738 119.887 119.909ZM130.111 128.023C129.505 128.023 128.983 127.943 128.545 127.784C128.111 127.625 127.756 127.415 127.481 127.153C127.206 126.891 127.001 126.604 126.865 126.293L128.142 125.766C128.232 125.911 128.351 126.066 128.5 126.228C128.653 126.394 128.858 126.535 129.117 126.651C129.379 126.767 129.715 126.825 130.126 126.825C130.69 126.825 131.155 126.687 131.523 126.412C131.891 126.14 132.075 125.706 132.075 125.109V123.608H131.98C131.891 123.77 131.762 123.951 131.593 124.15C131.427 124.349 131.198 124.521 130.907 124.667C130.615 124.813 130.235 124.886 129.768 124.886C129.165 124.886 128.621 124.745 128.137 124.463C127.657 124.178 127.276 123.759 126.994 123.205C126.716 122.648 126.576 121.964 126.576 121.152C126.576 120.34 126.714 119.644 126.989 119.064C127.267 118.484 127.649 118.04 128.132 117.732C128.616 117.42 129.165 117.264 129.778 117.264C130.252 117.264 130.635 117.344 130.926 117.503C131.218 117.659 131.445 117.841 131.608 118.05C131.773 118.259 131.901 118.442 131.99 118.602H132.1V117.364H133.556V125.169C133.556 125.825 133.404 126.364 133.099 126.785C132.794 127.206 132.382 127.517 131.861 127.719C131.344 127.922 130.761 128.023 130.111 128.023ZM130.096 123.653C130.524 123.653 130.885 123.553 131.18 123.354C131.478 123.152 131.704 122.864 131.856 122.489C132.012 122.112 132.09 121.659 132.09 121.132C132.09 120.618 132.014 120.166 131.861 119.775C131.709 119.384 131.485 119.079 131.19 118.86C130.895 118.638 130.53 118.527 130.096 118.527C129.649 118.527 129.276 118.643 128.978 118.875C128.679 119.104 128.454 119.415 128.301 119.81C128.152 120.204 128.078 120.645 128.078 121.132C128.078 121.633 128.154 122.072 128.306 122.45C128.459 122.827 128.684 123.122 128.983 123.335C129.284 123.547 129.655 123.653 130.096 123.653ZM137.772 125.169C137.288 125.169 136.851 125.08 136.46 124.901C136.069 124.718 135.759 124.455 135.53 124.11C135.305 123.765 135.192 123.343 135.192 122.842C135.192 122.411 135.275 122.057 135.441 121.778C135.606 121.5 135.83 121.28 136.112 121.117C136.394 120.955 136.708 120.832 137.056 120.749C137.404 120.666 137.759 120.603 138.12 120.56C138.578 120.507 138.949 120.464 139.234 120.431C139.519 120.395 139.726 120.337 139.855 120.257C139.985 120.178 140.049 120.048 140.049 119.869V119.835C140.049 119.4 139.927 119.064 139.681 118.825C139.44 118.587 139.078 118.467 138.598 118.467C138.097 118.467 137.703 118.578 137.414 118.8C137.129 119.019 136.932 119.263 136.823 119.531L135.426 119.213C135.592 118.749 135.833 118.375 136.152 118.089C136.473 117.801 136.843 117.592 137.26 117.463C137.678 117.33 138.117 117.264 138.578 117.264C138.883 117.264 139.206 117.301 139.547 117.374C139.892 117.443 140.213 117.572 140.512 117.761C140.813 117.95 141.06 118.22 141.252 118.572C141.445 118.92 141.541 119.372 141.541 119.929V125H140.089V123.956H140.029C139.933 124.148 139.789 124.337 139.597 124.523C139.405 124.708 139.158 124.862 138.856 124.985C138.555 125.108 138.193 125.169 137.772 125.169ZM138.096 123.976C138.507 123.976 138.858 123.895 139.15 123.732C139.444 123.57 139.668 123.358 139.821 123.096C139.976 122.831 140.054 122.547 140.054 122.246V121.261C140.001 121.314 139.899 121.364 139.746 121.411C139.597 121.454 139.426 121.492 139.234 121.525C139.042 121.555 138.855 121.583 138.672 121.609C138.49 121.633 138.337 121.652 138.215 121.669C137.926 121.705 137.663 121.767 137.424 121.853C137.189 121.939 137 122.063 136.858 122.226C136.718 122.385 136.649 122.597 136.649 122.862C136.649 123.23 136.785 123.509 137.056 123.697C137.328 123.883 137.675 123.976 138.096 123.976ZM143.521 125V117.364H144.958V118.577H145.037C145.176 118.166 145.422 117.843 145.773 117.607C146.128 117.369 146.529 117.249 146.976 117.249C147.069 117.249 147.178 117.253 147.304 117.259C147.433 117.266 147.535 117.274 147.607 117.284V118.706C147.548 118.689 147.442 118.671 147.289 118.651C147.137 118.628 146.984 118.616 146.832 118.616C146.481 118.616 146.167 118.691 145.892 118.84C145.62 118.986 145.405 119.19 145.246 119.452C145.087 119.71 145.007 120.005 145.007 120.337V125H143.521ZM151.048 125.169C150.564 125.169 150.126 125.08 149.735 124.901C149.344 124.718 149.034 124.455 148.806 124.11C148.58 123.765 148.468 123.343 148.468 122.842C148.468 122.411 148.55 122.057 148.716 121.778C148.882 121.5 149.106 121.28 149.387 121.117C149.669 120.955 149.984 120.832 150.332 120.749C150.68 120.666 151.035 120.603 151.396 120.56C151.853 120.507 152.224 120.464 152.509 120.431C152.794 120.395 153.002 120.337 153.131 120.257C153.26 120.178 153.325 120.048 153.325 119.869V119.835C153.325 119.4 153.202 119.064 152.957 118.825C152.715 118.587 152.354 118.467 151.873 118.467C151.373 118.467 150.978 118.578 150.69 118.8C150.405 119.019 150.208 119.263 150.098 119.531L148.701 119.213C148.867 118.749 149.109 118.375 149.427 118.089C149.749 117.801 150.118 117.592 150.536 117.463C150.953 117.33 151.392 117.264 151.853 117.264C152.158 117.264 152.481 117.301 152.823 117.374C153.167 117.443 153.489 117.572 153.787 117.761C154.089 117.95 154.336 118.22 154.528 118.572C154.72 118.92 154.816 119.372 154.816 119.929V125H153.365V123.956H153.305C153.209 124.148 153.065 124.337 152.872 124.523C152.68 124.708 152.433 124.862 152.132 124.985C151.83 125.108 151.469 125.169 151.048 125.169ZM151.371 123.976C151.782 123.976 152.133 123.895 152.425 123.732C152.72 123.57 152.944 123.358 153.096 123.096C153.252 122.831 153.33 122.547 153.33 122.246V121.261C153.277 121.314 153.174 121.364 153.021 121.411C152.872 121.454 152.702 121.492 152.509 121.525C152.317 121.555 152.13 121.583 151.948 121.609C151.765 121.633 151.613 121.652 151.49 121.669C151.202 121.705 150.938 121.767 150.7 121.853C150.464 121.939 150.276 122.063 150.133 122.226C149.994 122.385 149.924 122.597 149.924 122.862C149.924 123.23 150.06 123.509 150.332 123.697C150.604 123.883 150.95 123.976 151.371 123.976ZM158.283 120.466V125H156.796V117.364H158.223V118.607H158.317C158.493 118.202 158.768 117.877 159.143 117.632C159.521 117.387 159.996 117.264 160.57 117.264C161.09 117.264 161.546 117.374 161.937 117.592C162.328 117.808 162.631 118.129 162.847 118.557C163.062 118.984 163.17 119.513 163.17 120.143V125H161.683V120.322C161.683 119.768 161.539 119.336 161.251 119.024C160.962 118.709 160.566 118.552 160.062 118.552C159.718 118.552 159.411 118.626 159.143 118.776C158.878 118.925 158.667 119.143 158.511 119.432C158.359 119.717 158.283 120.062 158.283 120.466ZM168.728 117.364V118.557H164.557V117.364H168.728ZM165.675 115.534H167.162V122.758C167.162 123.046 167.205 123.263 167.291 123.409C167.377 123.552 167.488 123.649 167.624 123.702C167.763 123.752 167.914 123.777 168.077 123.777C168.196 123.777 168.3 123.769 168.39 123.752C168.479 123.736 168.549 123.722 168.599 123.712L168.867 124.94C168.781 124.973 168.658 125.007 168.499 125.04C168.34 125.076 168.141 125.096 167.903 125.099C167.512 125.106 167.147 125.036 166.809 124.891C166.471 124.745 166.197 124.519 165.989 124.214C165.78 123.91 165.675 123.527 165.675 123.066V115.534ZM170.372 125V117.364H171.859V125H170.372ZM171.123 116.185C170.865 116.185 170.642 116.099 170.457 115.927C170.275 115.751 170.183 115.542 170.183 115.3C170.183 115.055 170.275 114.846 170.457 114.674C170.642 114.498 170.865 114.411 171.123 114.411C171.382 114.411 171.602 114.498 171.784 114.674C171.97 114.846 172.063 115.055 172.063 115.3C172.063 115.542 171.97 115.751 171.784 115.927C171.602 116.099 171.382 116.185 171.123 116.185ZM176.717 125.149C176.101 125.149 175.551 124.992 175.067 124.677C174.586 124.359 174.208 123.906 173.933 123.32C173.661 122.73 173.526 122.022 173.526 121.197C173.526 120.371 173.663 119.665 173.938 119.079C174.217 118.492 174.598 118.043 175.082 117.732C175.566 117.42 176.114 117.264 176.727 117.264C177.201 117.264 177.582 117.344 177.871 117.503C178.162 117.659 178.388 117.841 178.547 118.05C178.709 118.259 178.835 118.442 178.925 118.602H179.014V114.818H180.501V125H179.049V123.812H178.925C178.835 123.974 178.706 124.16 178.537 124.369C178.371 124.577 178.143 124.76 177.851 124.915C177.559 125.071 177.181 125.149 176.717 125.149ZM177.045 123.881C177.473 123.881 177.834 123.769 178.129 123.543C178.428 123.315 178.653 122.998 178.805 122.594C178.961 122.189 179.039 121.719 179.039 121.182C179.039 120.652 178.963 120.187 178.81 119.79C178.658 119.392 178.434 119.082 178.139 118.86C177.844 118.638 177.48 118.527 177.045 118.527C176.598 118.527 176.225 118.643 175.927 118.875C175.629 119.107 175.403 119.424 175.251 119.825C175.102 120.226 175.027 120.678 175.027 121.182C175.027 121.692 175.103 122.151 175.256 122.559C175.408 122.967 175.634 123.29 175.932 123.528C176.233 123.764 176.605 123.881 177.045 123.881ZM185.839 125.154C185.123 125.154 184.498 124.99 183.965 124.662C183.431 124.334 183.017 123.875 182.722 123.285C182.427 122.695 182.279 122.005 182.279 121.217C182.279 120.424 182.427 119.732 182.722 119.138C183.017 118.545 183.431 118.085 183.965 117.756C184.498 117.428 185.123 117.264 185.839 117.264C186.555 117.264 187.18 117.428 187.713 117.756C188.247 118.085 188.661 118.545 188.956 119.138C189.251 119.732 189.399 120.424 189.399 121.217C189.399 122.005 189.251 122.695 188.956 123.285C188.661 123.875 188.247 124.334 187.713 124.662C187.18 124.99 186.555 125.154 185.839 125.154ZM185.844 123.906C186.308 123.906 186.692 123.784 186.997 123.538C187.302 123.293 187.528 122.967 187.673 122.559C187.823 122.151 187.897 121.702 187.897 121.212C187.897 120.724 187.823 120.277 187.673 119.869C187.528 119.458 187.302 119.129 186.997 118.88C186.692 118.631 186.308 118.507 185.844 118.507C185.377 118.507 184.989 118.631 184.681 118.88C184.376 119.129 184.149 119.458 183.999 119.869C183.854 120.277 183.781 120.724 183.781 121.212C183.781 121.702 183.854 122.151 183.999 122.559C184.149 122.967 184.376 123.293 184.681 123.538C184.989 123.784 185.377 123.906 185.844 123.906ZM197.98 125.154C197.24 125.154 196.604 124.987 196.07 124.652C195.54 124.314 195.133 123.848 194.847 123.255C194.562 122.662 194.42 121.982 194.42 121.217C194.42 120.441 194.566 119.757 194.857 119.163C195.149 118.567 195.56 118.101 196.09 117.766C196.621 117.432 197.245 117.264 197.965 117.264C198.545 117.264 199.062 117.372 199.516 117.587C199.97 117.799 200.336 118.098 200.615 118.482C200.896 118.867 201.064 119.316 201.117 119.83H199.67C199.59 119.472 199.408 119.163 199.123 118.905C198.841 118.646 198.463 118.517 197.99 118.517C197.575 118.517 197.212 118.626 196.901 118.845C196.593 119.061 196.352 119.369 196.18 119.77C196.008 120.168 195.921 120.638 195.921 121.182C195.921 121.739 196.006 122.219 196.175 122.624C196.344 123.028 196.583 123.341 196.891 123.563C197.202 123.785 197.569 123.896 197.99 123.896C198.271 123.896 198.526 123.845 198.755 123.742C198.987 123.636 199.181 123.485 199.337 123.29C199.496 123.094 199.607 122.859 199.67 122.584H201.117C201.064 123.078 200.903 123.518 200.634 123.906C200.366 124.294 200.006 124.599 199.556 124.821C199.108 125.043 198.583 125.154 197.98 125.154ZM205.923 125.154C205.207 125.154 204.582 124.99 204.049 124.662C203.515 124.334 203.101 123.875 202.806 123.285C202.511 122.695 202.363 122.005 202.363 121.217C202.363 120.424 202.511 119.732 202.806 119.138C203.101 118.545 203.515 118.085 204.049 117.756C204.582 117.428 205.207 117.264 205.923 117.264C206.639 117.264 207.264 117.428 207.797 117.756C208.331 118.085 208.745 118.545 209.04 119.138C209.335 119.732 209.483 120.424 209.483 121.217C209.483 122.005 209.335 122.695 209.04 123.285C208.745 123.875 208.331 124.334 207.797 124.662C207.264 124.99 206.639 125.154 205.923 125.154ZM205.928 123.906C206.392 123.906 206.776 123.784 207.081 123.538C207.386 123.293 207.612 122.967 207.757 122.559C207.907 122.151 207.981 121.702 207.981 121.212C207.981 120.724 207.907 120.277 207.757 119.869C207.612 119.458 207.386 119.129 207.081 118.88C206.776 118.631 206.392 118.507 205.928 118.507C205.461 118.507 205.073 118.631 204.765 118.88C204.46 119.129 204.233 119.458 204.083 119.869C203.938 120.277 203.865 120.724 203.865 121.212C203.865 121.702 203.938 122.151 204.083 122.559C204.233 122.967 204.46 123.293 204.765 123.538C205.073 123.784 205.461 123.906 205.928 123.906ZM211.142 125V117.364H212.569V118.607H212.663C212.822 118.186 213.082 117.857 213.444 117.622C213.805 117.384 214.238 117.264 214.741 117.264C215.252 117.264 215.679 117.384 216.024 117.622C216.372 117.861 216.629 118.189 216.795 118.607H216.874C217.056 118.199 217.346 117.874 217.744 117.632C218.142 117.387 218.616 117.264 219.166 117.264C219.859 117.264 220.424 117.481 220.861 117.915C221.302 118.35 221.523 119.004 221.523 119.879V125H220.036V120.018C220.036 119.501 219.895 119.127 219.613 118.895C219.332 118.663 218.995 118.547 218.604 118.547C218.12 118.547 217.744 118.696 217.476 118.994C217.207 119.289 217.073 119.669 217.073 120.133V125H215.591V119.924C215.591 119.51 215.462 119.177 215.204 118.925C214.945 118.673 214.609 118.547 214.194 118.547C213.913 118.547 213.653 118.621 213.414 118.771C213.179 118.916 212.988 119.12 212.842 119.382C212.7 119.644 212.628 119.947 212.628 120.292V125H211.142ZM235.557 114.818V125H234.145L228.97 117.533H228.876V125H227.339V114.818H228.761L233.942 122.295H234.036V114.818H235.557ZM240.97 125.154C240.218 125.154 239.57 124.993 239.026 124.672C238.486 124.347 238.068 123.891 237.773 123.305C237.482 122.715 237.336 122.024 237.336 121.232C237.336 120.449 237.482 119.76 237.773 119.163C238.068 118.567 238.479 118.101 239.006 117.766C239.537 117.432 240.156 117.264 240.866 117.264C241.297 117.264 241.714 117.335 242.119 117.478C242.523 117.621 242.886 117.844 243.207 118.149C243.529 118.454 243.782 118.85 243.968 119.337C244.154 119.821 244.246 120.41 244.246 121.102V121.629H238.176V120.516H242.79C242.79 120.125 242.71 119.778 242.551 119.477C242.392 119.172 242.168 118.931 241.88 118.756C241.595 118.58 241.26 118.492 240.876 118.492C240.458 118.492 240.094 118.595 239.782 118.8C239.474 119.003 239.235 119.268 239.066 119.596C238.9 119.921 238.817 120.274 238.817 120.655V121.525C238.817 122.035 238.907 122.469 239.086 122.827C239.268 123.185 239.522 123.459 239.847 123.648C240.171 123.833 240.551 123.926 240.985 123.926C241.267 123.926 241.524 123.886 241.756 123.807C241.988 123.724 242.188 123.601 242.357 123.439C242.526 123.277 242.656 123.076 242.745 122.837L244.152 123.091C244.039 123.505 243.837 123.868 243.545 124.18C243.257 124.488 242.894 124.728 242.457 124.901C242.022 125.07 241.527 125.154 240.97 125.154ZM246.891 117.364L248.577 120.337L250.277 117.364H251.903L249.521 121.182L251.923 125H250.297L248.577 122.146L246.862 125H245.231L247.607 121.182L245.261 117.364H246.891ZM256.994 117.364V118.557H252.822V117.364H256.994ZM253.941 115.534H255.428V122.758C255.428 123.046 255.471 123.263 255.557 123.409C255.643 123.552 255.754 123.649 255.89 123.702C256.029 123.752 256.18 123.777 256.342 123.777C256.462 123.777 256.566 123.769 256.656 123.752C256.745 123.736 256.815 123.722 256.864 123.712L257.133 124.94C257.047 124.973 256.924 125.007 256.765 125.04C256.606 125.076 256.407 125.096 256.168 125.099C255.777 125.106 255.413 125.036 255.075 124.891C254.737 124.745 254.463 124.519 254.254 124.214C254.045 123.91 253.941 123.527 253.941 123.066V115.534ZM259.617 125.094C259.346 125.094 259.112 124.998 258.916 124.806C258.721 124.611 258.623 124.375 258.623 124.1C258.623 123.828 258.721 123.596 258.916 123.404C259.112 123.209 259.346 123.111 259.617 123.111C259.889 123.111 260.123 123.209 260.318 123.404C260.514 123.596 260.612 123.828 260.612 124.1C260.612 124.282 260.565 124.45 260.472 124.602C260.383 124.751 260.264 124.871 260.115 124.96C259.965 125.05 259.8 125.094 259.617 125.094ZM262.603 117.364H264.089V125.497C264.089 126.008 263.997 126.438 263.811 126.79C263.629 127.141 263.357 127.408 262.996 127.59C262.638 127.772 262.195 127.864 261.668 127.864C261.615 127.864 261.565 127.864 261.519 127.864C261.469 127.864 261.418 127.862 261.365 127.859V126.581C261.411 126.581 261.453 126.581 261.489 126.581C261.522 126.581 261.56 126.581 261.604 126.581C261.955 126.581 262.208 126.487 262.364 126.298C262.523 126.112 262.603 125.842 262.603 125.487V117.364ZM263.339 116.185C263.08 116.185 262.858 116.099 262.672 115.927C262.49 115.751 262.399 115.542 262.399 115.3C262.399 115.055 262.49 114.846 262.672 114.674C262.858 114.498 263.08 114.411 263.339 114.411C263.597 114.411 263.818 114.498 264 114.674C264.185 114.846 264.278 115.055 264.278 115.3C264.278 115.542 264.185 115.751 264 115.927C263.818 116.099 263.597 116.185 263.339 116.185ZM271.811 119.228L270.464 119.467C270.408 119.294 270.318 119.13 270.196 118.974C270.076 118.819 269.914 118.691 269.708 118.592C269.503 118.492 269.246 118.442 268.938 118.442C268.517 118.442 268.166 118.537 267.884 118.726C267.602 118.911 267.461 119.152 267.461 119.447C267.461 119.702 267.556 119.907 267.745 120.063C267.934 120.219 268.239 120.347 268.659 120.446L269.873 120.724C270.575 120.887 271.099 121.137 271.444 121.475C271.788 121.813 271.961 122.252 271.961 122.793C271.961 123.25 271.828 123.658 271.563 124.016C271.301 124.37 270.935 124.649 270.464 124.851C269.997 125.053 269.455 125.154 268.838 125.154C267.983 125.154 267.286 124.972 266.745 124.607C266.205 124.239 265.874 123.717 265.751 123.041L267.188 122.822C267.277 123.197 267.461 123.48 267.74 123.673C268.018 123.862 268.381 123.956 268.828 123.956C269.316 123.956 269.705 123.855 269.997 123.653C270.288 123.447 270.434 123.197 270.434 122.902C270.434 122.663 270.345 122.463 270.166 122.3C269.99 122.138 269.72 122.015 269.355 121.933L268.063 121.649C267.35 121.487 266.823 121.228 266.482 120.874C266.144 120.519 265.975 120.07 265.975 119.526C265.975 119.076 266.101 118.681 266.353 118.343C266.605 118.005 266.953 117.741 267.397 117.553C267.841 117.36 268.35 117.264 268.923 117.264C269.748 117.264 270.398 117.443 270.872 117.801C271.346 118.156 271.659 118.631 271.811 119.228Z" fill="white"/>
<rect x="374" y="111" width="140" height="140" rx="70" fill="url(#paint1_linear_4_195)"/>
<rect x="249" y="183" width="195" height="26" rx="13" fill="#0019FF"/>
<path d="M267.616 192.141V190.818H275.496V192.141H272.32V201H270.788V192.141H267.616ZM279.302 201.154C278.55 201.154 277.902 200.993 277.358 200.672C276.818 200.347 276.4 199.891 276.105 199.305C275.814 198.715 275.668 198.024 275.668 197.232C275.668 196.449 275.814 195.76 276.105 195.163C276.4 194.567 276.811 194.101 277.338 193.766C277.869 193.432 278.489 193.264 279.198 193.264C279.629 193.264 280.046 193.335 280.451 193.478C280.855 193.621 281.218 193.844 281.539 194.149C281.861 194.454 282.114 194.85 282.3 195.337C282.486 195.821 282.578 196.41 282.578 197.102V197.629H276.508V196.516H281.122C281.122 196.125 281.042 195.778 280.883 195.477C280.724 195.172 280.5 194.931 280.212 194.756C279.927 194.58 279.592 194.492 279.208 194.492C278.79 194.492 278.426 194.595 278.114 194.8C277.806 195.003 277.567 195.268 277.398 195.596C277.232 195.921 277.15 196.274 277.15 196.655V197.525C277.15 198.035 277.239 198.469 277.418 198.827C277.6 199.185 277.854 199.459 278.179 199.648C278.503 199.833 278.883 199.926 279.317 199.926C279.599 199.926 279.856 199.886 280.088 199.807C280.32 199.724 280.52 199.601 280.689 199.439C280.858 199.277 280.988 199.076 281.077 198.837L282.484 199.091C282.371 199.505 282.169 199.868 281.877 200.18C281.589 200.488 281.226 200.728 280.789 200.901C280.355 201.07 279.859 201.154 279.302 201.154ZM287.444 201.154C286.705 201.154 286.069 200.987 285.535 200.652C285.005 200.314 284.597 199.848 284.312 199.255C284.027 198.662 283.885 197.982 283.885 197.217C283.885 196.441 284.031 195.757 284.322 195.163C284.614 194.567 285.025 194.101 285.555 193.766C286.086 193.432 286.71 193.264 287.43 193.264C288.01 193.264 288.527 193.372 288.981 193.587C289.435 193.799 289.801 194.098 290.079 194.482C290.361 194.867 290.528 195.316 290.581 195.83H289.135C289.055 195.472 288.873 195.163 288.588 194.905C288.306 194.646 287.928 194.517 287.454 194.517C287.04 194.517 286.677 194.626 286.366 194.845C286.057 195.061 285.817 195.369 285.645 195.77C285.472 196.168 285.386 196.638 285.386 197.182C285.386 197.739 285.471 198.219 285.64 198.624C285.809 199.028 286.047 199.341 286.356 199.563C286.667 199.785 287.033 199.896 287.454 199.896C287.736 199.896 287.991 199.845 288.22 199.742C288.452 199.636 288.646 199.485 288.802 199.29C288.961 199.094 289.072 198.859 289.135 198.584H290.581C290.528 199.078 290.368 199.518 290.099 199.906C289.831 200.294 289.471 200.599 289.02 200.821C288.573 201.043 288.048 201.154 287.444 201.154ZM293.658 196.466V201H292.171V193.364H293.598V194.607H293.692C293.868 194.202 294.143 193.877 294.518 193.632C294.896 193.387 295.371 193.264 295.945 193.264C296.465 193.264 296.921 193.374 297.312 193.592C297.703 193.808 298.006 194.129 298.222 194.557C298.437 194.984 298.545 195.513 298.545 196.143V201H297.058V196.322C297.058 195.768 296.914 195.336 296.626 195.024C296.337 194.709 295.941 194.552 295.438 194.552C295.093 194.552 294.786 194.626 294.518 194.776C294.253 194.925 294.042 195.143 293.886 195.432C293.734 195.717 293.658 196.062 293.658 196.466ZM303.755 201.154C303.039 201.154 302.414 200.99 301.881 200.662C301.347 200.334 300.933 199.875 300.638 199.285C300.343 198.695 300.195 198.005 300.195 197.217C300.195 196.424 300.343 195.732 300.638 195.138C300.933 194.545 301.347 194.085 301.881 193.756C302.414 193.428 303.039 193.264 303.755 193.264C304.471 193.264 305.096 193.428 305.629 193.756C306.163 194.085 306.577 194.545 306.872 195.138C307.167 195.732 307.315 196.424 307.315 197.217C307.315 198.005 307.167 198.695 306.872 199.285C306.577 199.875 306.163 200.334 305.629 200.662C305.096 200.99 304.471 201.154 303.755 201.154ZM303.76 199.906C304.224 199.906 304.608 199.784 304.913 199.538C305.218 199.293 305.444 198.967 305.589 198.559C305.739 198.151 305.813 197.702 305.813 197.212C305.813 196.724 305.739 196.277 305.589 195.869C305.444 195.458 305.218 195.129 304.913 194.88C304.608 194.631 304.224 194.507 303.76 194.507C303.293 194.507 302.905 194.631 302.597 194.88C302.292 195.129 302.065 195.458 301.915 195.869C301.77 196.277 301.697 196.724 301.697 197.212C301.697 197.702 301.77 198.151 301.915 198.559C302.065 198.967 302.292 199.293 302.597 199.538C302.905 199.784 303.293 199.906 303.76 199.906ZM310.46 190.818V201H308.974V190.818H310.46ZM315.677 201.154C314.961 201.154 314.336 200.99 313.803 200.662C313.269 200.334 312.855 199.875 312.56 199.285C312.265 198.695 312.117 198.005 312.117 197.217C312.117 196.424 312.265 195.732 312.56 195.138C312.855 194.545 313.269 194.085 313.803 193.756C314.336 193.428 314.961 193.264 315.677 193.264C316.393 193.264 317.018 193.428 317.551 193.756C318.085 194.085 318.499 194.545 318.794 195.138C319.089 195.732 319.237 196.424 319.237 197.217C319.237 198.005 319.089 198.695 318.794 199.285C318.499 199.875 318.085 200.334 317.551 200.662C317.018 200.99 316.393 201.154 315.677 201.154ZM315.682 199.906C316.146 199.906 316.53 199.784 316.835 199.538C317.14 199.293 317.366 198.967 317.511 198.559C317.661 198.151 317.735 197.702 317.735 197.212C317.735 196.724 317.661 196.277 317.511 195.869C317.366 195.458 317.14 195.129 316.835 194.88C316.53 194.631 316.146 194.507 315.682 194.507C315.214 194.507 314.827 194.631 314.518 194.88C314.214 195.129 313.987 195.458 313.837 195.869C313.692 196.277 313.619 196.724 313.619 197.212C313.619 197.702 313.692 198.151 313.837 198.559C313.987 198.967 314.214 199.293 314.518 199.538C314.827 199.784 315.214 199.906 315.682 199.906ZM324.097 204.023C323.491 204.023 322.969 203.943 322.531 203.784C322.097 203.625 321.743 203.415 321.468 203.153C321.192 202.891 320.987 202.604 320.851 202.293L322.129 201.766C322.218 201.911 322.338 202.066 322.487 202.228C322.639 202.394 322.845 202.535 323.103 202.651C323.365 202.767 323.701 202.825 324.112 202.825C324.676 202.825 325.142 202.687 325.509 202.412C325.877 202.14 326.061 201.706 326.061 201.109V199.608H325.967C325.877 199.77 325.748 199.951 325.579 200.15C325.413 200.349 325.185 200.521 324.893 200.667C324.601 200.813 324.222 200.886 323.754 200.886C323.151 200.886 322.608 200.745 322.124 200.463C321.643 200.178 321.262 199.759 320.98 199.205C320.702 198.648 320.563 197.964 320.563 197.152C320.563 196.34 320.7 195.644 320.975 195.064C321.254 194.484 321.635 194.04 322.119 193.732C322.603 193.42 323.151 193.264 323.764 193.264C324.238 193.264 324.621 193.344 324.913 193.503C325.204 193.659 325.432 193.841 325.594 194.05C325.76 194.259 325.887 194.442 325.977 194.602H326.086V193.364H327.543V201.169C327.543 201.825 327.39 202.364 327.085 202.785C326.78 203.206 326.368 203.517 325.847 203.719C325.33 203.922 324.747 204.023 324.097 204.023ZM324.083 199.653C324.51 199.653 324.871 199.553 325.166 199.354C325.465 199.152 325.69 198.864 325.843 198.489C325.998 198.112 326.076 197.659 326.076 197.132C326.076 196.618 326 196.166 325.847 195.775C325.695 195.384 325.471 195.079 325.176 194.86C324.881 194.638 324.517 194.527 324.083 194.527C323.635 194.527 323.262 194.643 322.964 194.875C322.666 195.104 322.44 195.415 322.288 195.81C322.139 196.204 322.064 196.645 322.064 197.132C322.064 197.633 322.14 198.072 322.293 198.45C322.445 198.827 322.671 199.122 322.969 199.335C323.271 199.547 323.642 199.653 324.083 199.653ZM329.536 201V193.364H331.023V201H329.536ZM330.287 192.185C330.029 192.185 329.807 192.099 329.621 191.927C329.439 191.751 329.347 191.542 329.347 191.3C329.347 191.055 329.439 190.846 329.621 190.674C329.807 190.498 330.029 190.411 330.287 190.411C330.546 190.411 330.766 190.498 330.948 190.674C331.134 190.846 331.227 191.055 331.227 191.3C331.227 191.542 331.134 191.751 330.948 191.927C330.766 192.099 330.546 192.185 330.287 192.185ZM335.245 201.169C334.761 201.169 334.324 201.08 333.933 200.901C333.541 200.718 333.232 200.455 333.003 200.11C332.777 199.765 332.665 199.343 332.665 198.842C332.665 198.411 332.748 198.057 332.913 197.778C333.079 197.5 333.303 197.28 333.585 197.117C333.866 196.955 334.181 196.832 334.529 196.749C334.877 196.666 335.232 196.603 335.593 196.56C336.05 196.507 336.422 196.464 336.707 196.431C336.992 196.395 337.199 196.337 337.328 196.257C337.457 196.178 337.522 196.048 337.522 195.869V195.835C337.522 195.4 337.399 195.064 337.154 194.825C336.912 194.587 336.551 194.467 336.07 194.467C335.57 194.467 335.175 194.578 334.887 194.8C334.602 195.019 334.405 195.263 334.295 195.531L332.898 195.213C333.064 194.749 333.306 194.375 333.624 194.089C333.946 193.801 334.315 193.592 334.733 193.463C335.151 193.33 335.59 193.264 336.05 193.264C336.355 193.264 336.679 193.301 337.02 193.374C337.365 193.443 337.686 193.572 337.984 193.761C338.286 193.95 338.533 194.22 338.725 194.572C338.917 194.92 339.013 195.372 339.013 195.929V201H337.562V199.956H337.502C337.406 200.148 337.262 200.337 337.07 200.523C336.877 200.708 336.63 200.862 336.329 200.985C336.027 201.108 335.666 201.169 335.245 201.169ZM335.568 199.976C335.979 199.976 336.33 199.895 336.622 199.732C336.917 199.57 337.141 199.358 337.293 199.096C337.449 198.831 337.527 198.547 337.527 198.246V197.261C337.474 197.314 337.371 197.364 337.219 197.411C337.07 197.454 336.899 197.492 336.707 197.525C336.514 197.555 336.327 197.583 336.145 197.609C335.963 197.633 335.81 197.652 335.688 197.669C335.399 197.705 335.136 197.767 334.897 197.853C334.662 197.939 334.473 198.063 334.33 198.226C334.191 198.385 334.121 198.597 334.121 198.862C334.121 199.23 334.257 199.509 334.529 199.697C334.801 199.883 335.147 199.976 335.568 199.976ZM346.921 201.169C346.437 201.169 345.999 201.08 345.608 200.901C345.217 200.718 344.907 200.455 344.679 200.11C344.453 199.765 344.341 199.343 344.341 198.842C344.341 198.411 344.423 198.057 344.589 197.778C344.755 197.5 344.979 197.28 345.26 197.117C345.542 196.955 345.857 196.832 346.205 196.749C346.553 196.666 346.908 196.603 347.269 196.56C347.726 196.507 348.097 196.464 348.382 196.431C348.667 196.395 348.875 196.337 349.004 196.257C349.133 196.178 349.198 196.048 349.198 195.869V195.835C349.198 195.4 349.075 195.064 348.83 194.825C348.588 194.587 348.227 194.467 347.746 194.467C347.246 194.467 346.851 194.578 346.563 194.8C346.278 195.019 346.081 195.263 345.971 195.531L344.574 195.213C344.74 194.749 344.982 194.375 345.3 194.089C345.622 193.801 345.991 193.592 346.409 193.463C346.826 193.33 347.266 193.264 347.726 193.264C348.031 193.264 348.354 193.301 348.696 193.374C349.04 193.443 349.362 193.572 349.66 193.761C349.962 193.95 350.209 194.22 350.401 194.572C350.593 194.92 350.689 195.372 350.689 195.929V201H349.238V199.956H349.178C349.082 200.148 348.938 200.337 348.745 200.523C348.553 200.708 348.306 200.862 348.005 200.985C347.703 201.108 347.342 201.169 346.921 201.169ZM347.244 199.976C347.655 199.976 348.006 199.895 348.298 199.732C348.593 199.57 348.817 199.358 348.969 199.096C349.125 198.831 349.203 198.547 349.203 198.246V197.261C349.15 197.314 349.047 197.364 348.895 197.411C348.745 197.454 348.575 197.492 348.382 197.525C348.19 197.555 348.003 197.583 347.821 197.609C347.638 197.633 347.486 197.652 347.363 197.669C347.075 197.705 346.811 197.767 346.573 197.853C346.337 197.939 346.149 198.063 346.006 198.226C345.867 198.385 345.797 198.597 345.797 198.862C345.797 199.23 345.933 199.509 346.205 199.697C346.477 199.883 346.823 199.976 347.244 199.976ZM359.591 201.154C358.875 201.154 358.25 200.99 357.717 200.662C357.183 200.334 356.769 199.875 356.474 199.285C356.179 198.695 356.031 198.005 356.031 197.217C356.031 196.424 356.179 195.732 356.474 195.138C356.769 194.545 357.183 194.085 357.717 193.756C358.25 193.428 358.875 193.264 359.591 193.264C360.307 193.264 360.932 193.428 361.465 193.756C361.999 194.085 362.413 194.545 362.708 195.138C363.003 195.732 363.151 196.424 363.151 197.217C363.151 198.005 363.003 198.695 362.708 199.285C362.413 199.875 361.999 200.334 361.465 200.662C360.932 200.99 360.307 201.154 359.591 201.154ZM359.596 199.906C360.06 199.906 360.444 199.784 360.749 199.538C361.054 199.293 361.28 198.967 361.425 198.559C361.575 198.151 361.649 197.702 361.649 197.212C361.649 196.724 361.575 196.277 361.425 195.869C361.28 195.458 361.054 195.129 360.749 194.88C360.444 194.631 360.06 194.507 359.596 194.507C359.129 194.507 358.741 194.631 358.433 194.88C358.128 195.129 357.901 195.458 357.751 195.869C357.606 196.277 357.533 196.724 357.533 197.212C357.533 197.702 357.606 198.151 357.751 198.559C357.901 198.967 358.128 199.293 358.433 199.538C358.741 199.784 359.129 199.906 359.596 199.906ZM369.647 197.833V193.364H371.139V201H369.677V199.678H369.597C369.422 200.085 369.14 200.425 368.752 200.697C368.368 200.965 367.889 201.099 367.316 201.099C366.825 201.099 366.391 200.992 366.013 200.776C365.638 200.558 365.343 200.234 365.128 199.807C364.916 199.379 364.81 198.851 364.81 198.221V193.364H366.296V198.042C366.296 198.562 366.441 198.977 366.729 199.285C367.017 199.593 367.392 199.747 367.852 199.747C368.131 199.747 368.408 199.678 368.683 199.538C368.961 199.399 369.191 199.189 369.374 198.907C369.559 198.625 369.651 198.267 369.647 197.833ZM376.701 193.364V194.557H372.529V193.364H376.701ZM373.648 191.534H375.135V198.758C375.135 199.046 375.178 199.263 375.264 199.409C375.35 199.552 375.461 199.649 375.597 199.702C375.736 199.752 375.887 199.777 376.049 199.777C376.169 199.777 376.273 199.769 376.363 199.752C376.452 199.736 376.522 199.722 376.571 199.712L376.84 200.94C376.754 200.973 376.631 201.007 376.472 201.04C376.313 201.076 376.114 201.096 375.875 201.099C375.484 201.106 375.12 201.036 374.782 200.891C374.444 200.745 374.17 200.519 373.961 200.214C373.752 199.91 373.648 199.527 373.648 199.066V191.534ZM378.345 201V193.364H379.782V194.577H379.861C380.001 194.166 380.246 193.843 380.597 193.607C380.952 193.369 381.353 193.249 381.8 193.249C381.893 193.249 382.002 193.253 382.128 193.259C382.258 193.266 382.359 193.274 382.432 193.284V194.706C382.372 194.689 382.266 194.671 382.113 194.651C381.961 194.628 381.809 194.616 381.656 194.616C381.305 194.616 380.992 194.691 380.716 194.84C380.445 194.986 380.229 195.19 380.07 195.452C379.911 195.71 379.831 196.005 379.831 196.337V201H378.345ZM386.661 201.154C385.945 201.154 385.321 200.99 384.787 200.662C384.253 200.334 383.839 199.875 383.544 199.285C383.249 198.695 383.102 198.005 383.102 197.217C383.102 196.424 383.249 195.732 383.544 195.138C383.839 194.545 384.253 194.085 384.787 193.756C385.321 193.428 385.945 193.264 386.661 193.264C387.377 193.264 388.002 193.428 388.536 193.756C389.069 194.085 389.483 194.545 389.778 195.138C390.073 195.732 390.221 196.424 390.221 197.217C390.221 198.005 390.073 198.695 389.778 199.285C389.483 199.875 389.069 200.334 388.536 200.662C388.002 200.99 387.377 201.154 386.661 201.154ZM386.666 199.906C387.13 199.906 387.515 199.784 387.82 199.538C388.125 199.293 388.35 198.967 388.496 198.559C388.645 198.151 388.719 197.702 388.719 197.212C388.719 196.724 388.645 196.277 388.496 195.869C388.35 195.458 388.125 195.129 387.82 194.88C387.515 194.631 387.13 194.507 386.666 194.507C386.199 194.507 385.811 194.631 385.503 194.88C385.198 195.129 384.971 195.458 384.822 195.869C384.676 196.277 384.603 196.724 384.603 197.212C384.603 197.702 384.676 198.151 384.822 198.559C384.971 198.967 385.198 199.293 385.503 199.538C385.811 199.784 386.199 199.906 386.666 199.906ZM397.072 196.466V201H395.585V193.364H397.012V194.607H397.107C397.282 194.202 397.557 193.877 397.932 193.632C398.31 193.387 398.785 193.264 399.359 193.264C399.879 193.264 400.335 193.374 400.726 193.592C401.117 193.808 401.42 194.129 401.636 194.557C401.851 194.984 401.959 195.513 401.959 196.143V201H400.472V196.322C400.472 195.768 400.328 195.336 400.04 195.024C399.751 194.709 399.355 194.552 398.852 194.552C398.507 194.552 398.2 194.626 397.932 194.776C397.667 194.925 397.456 195.143 397.3 195.432C397.148 195.717 397.072 196.062 397.072 196.466ZM403.952 201V193.364H405.439V201H403.952ZM404.092 192.344L405.255 190.053H406.821L405.28 192.344H404.092ZM413.971 193.364L411.202 201H409.611L406.837 193.364H408.433L410.367 199.24H410.447L412.376 193.364H413.971ZM418.4 201.154C417.647 201.154 417 200.993 416.456 200.672C415.916 200.347 415.498 199.891 415.203 199.305C414.911 198.715 414.766 198.024 414.766 197.232C414.766 196.449 414.911 195.76 415.203 195.163C415.498 194.567 415.909 194.101 416.436 193.766C416.966 193.432 417.586 193.264 418.295 193.264C418.726 193.264 419.144 193.335 419.548 193.478C419.953 193.621 420.316 193.844 420.637 194.149C420.959 194.454 421.212 194.85 421.398 195.337C421.583 195.821 421.676 196.41 421.676 197.102V197.629H415.606V196.516H420.219C420.219 196.125 420.14 195.778 419.981 195.477C419.822 195.172 419.598 194.931 419.31 194.756C419.025 194.58 418.69 194.492 418.305 194.492C417.888 194.492 417.523 194.595 417.212 194.8C416.903 195.003 416.665 195.268 416.496 195.596C416.33 195.921 416.247 196.274 416.247 196.655V197.525C416.247 198.035 416.337 198.469 416.516 198.827C416.698 199.185 416.951 199.459 417.276 199.648C417.601 199.833 417.981 199.926 418.415 199.926C418.696 199.926 418.953 199.886 419.185 199.807C419.417 199.724 419.618 199.601 419.787 199.439C419.956 199.277 420.085 199.076 420.175 198.837L421.582 199.091C421.469 199.505 421.267 199.868 420.975 200.18C420.687 200.488 420.324 200.728 419.886 200.901C419.452 201.07 418.957 201.154 418.4 201.154ZM424.812 190.818V201H423.325V190.818H424.812Z" fill="white"/>
<rect x="423" y="136" width="149" height="26" rx="13" fill="#0019FF"/>
<path d="M445.119 143.818H446.983L450.224 151.733H450.344L453.585 143.818H455.45V154H453.988V146.632H453.893L450.891 153.985H449.678L446.675 146.627H446.58V154H445.119V143.818ZM462.401 150.833V146.364H463.893V154H462.431V152.678H462.351C462.176 153.085 461.894 153.425 461.506 153.697C461.122 153.965 460.643 154.099 460.069 154.099C459.579 154.099 459.145 153.992 458.767 153.776C458.392 153.558 458.097 153.234 457.882 152.807C457.67 152.379 457.564 151.851 457.564 151.221V146.364H459.05V151.042C459.05 151.562 459.194 151.977 459.483 152.285C459.771 152.593 460.146 152.747 460.606 152.747C460.885 152.747 461.162 152.678 461.437 152.538C461.715 152.399 461.945 152.189 462.128 151.907C462.313 151.625 462.404 151.267 462.401 150.833ZM467.376 143.818V154H465.89V143.818H467.376ZM472.941 146.364V147.557H468.77V146.364H472.941ZM469.888 144.534H471.375V151.758C471.375 152.046 471.418 152.263 471.504 152.409C471.59 152.552 471.701 152.649 471.837 152.702C471.976 152.752 472.127 152.777 472.29 152.777C472.409 152.777 472.513 152.769 472.603 152.752C472.692 152.736 472.762 152.722 472.812 152.712L473.08 153.94C472.994 153.973 472.871 154.007 472.712 154.04C472.553 154.076 472.354 154.096 472.116 154.099C471.724 154.106 471.36 154.036 471.022 153.891C470.684 153.745 470.41 153.519 470.202 153.214C469.993 152.91 469.888 152.527 469.888 152.066V144.534ZM474.585 154V146.364H476.072V154H474.585ZM475.336 145.185C475.077 145.185 474.855 145.099 474.67 144.927C474.487 144.751 474.396 144.542 474.396 144.3C474.396 144.055 474.487 143.846 474.67 143.674C474.855 143.498 475.077 143.411 475.336 143.411C475.594 143.411 475.815 143.498 475.997 143.674C476.183 143.846 476.276 144.055 476.276 144.3C476.276 144.542 476.183 144.751 475.997 144.927C475.815 145.099 475.594 145.185 475.336 145.185ZM478.072 156.864V146.364H479.523V147.602H479.648C479.734 147.442 479.858 147.259 480.02 147.05C480.183 146.841 480.408 146.659 480.697 146.503C480.985 146.344 481.366 146.264 481.84 146.264C482.456 146.264 483.007 146.42 483.491 146.732C483.974 147.043 484.354 147.492 484.629 148.079C484.907 148.665 485.047 149.371 485.047 150.197C485.047 151.022 484.909 151.73 484.634 152.32C484.359 152.906 483.981 153.359 483.501 153.677C483.02 153.992 482.471 154.149 481.855 154.149C481.391 154.149 481.011 154.071 480.716 153.915C480.425 153.76 480.196 153.577 480.03 153.369C479.865 153.16 479.737 152.974 479.648 152.812H479.558V156.864H478.072ZM479.528 150.182C479.528 150.719 479.606 151.189 479.762 151.594C479.918 151.998 480.143 152.315 480.438 152.543C480.733 152.769 481.094 152.881 481.522 152.881C481.966 152.881 482.337 152.764 482.635 152.528C482.934 152.29 483.159 151.967 483.312 151.559C483.467 151.151 483.545 150.692 483.545 150.182C483.545 149.678 483.469 149.226 483.317 148.825C483.167 148.424 482.942 148.107 482.64 147.875C482.342 147.643 481.969 147.527 481.522 147.527C481.091 147.527 480.726 147.638 480.428 147.86C480.133 148.082 479.909 148.392 479.757 148.79C479.604 149.187 479.528 149.652 479.528 150.182ZM488.199 143.818V154H486.712V143.818H488.199ZM492.421 154.169C491.937 154.169 491.499 154.08 491.108 153.901C490.717 153.718 490.407 153.455 490.179 153.11C489.953 152.765 489.841 152.343 489.841 151.842C489.841 151.411 489.923 151.057 490.089 150.778C490.255 150.5 490.479 150.28 490.76 150.117C491.042 149.955 491.357 149.832 491.705 149.749C492.053 149.666 492.408 149.603 492.769 149.56C493.226 149.507 493.597 149.464 493.882 149.431C494.167 149.395 494.375 149.337 494.504 149.257C494.633 149.178 494.698 149.048 494.698 148.869V148.835C494.698 148.4 494.575 148.064 494.33 147.825C494.088 147.587 493.727 147.467 493.246 147.467C492.746 147.467 492.351 147.578 492.063 147.8C491.778 148.019 491.581 148.263 491.471 148.531L490.074 148.213C490.24 147.749 490.482 147.375 490.8 147.089C491.122 146.801 491.491 146.592 491.909 146.463C492.326 146.33 492.766 146.264 493.226 146.264C493.531 146.264 493.854 146.301 494.196 146.374C494.54 146.443 494.862 146.572 495.16 146.761C495.462 146.95 495.709 147.22 495.901 147.572C496.093 147.92 496.189 148.372 496.189 148.929V154H494.738V152.956H494.678C494.582 153.148 494.438 153.337 494.245 153.523C494.053 153.708 493.806 153.862 493.505 153.985C493.203 154.108 492.842 154.169 492.421 154.169ZM492.744 152.976C493.155 152.976 493.506 152.895 493.798 152.732C494.093 152.57 494.317 152.358 494.469 152.096C494.625 151.831 494.703 151.547 494.703 151.246V150.261C494.65 150.314 494.547 150.364 494.395 150.411C494.245 150.454 494.075 150.492 493.882 150.525C493.69 150.555 493.503 150.583 493.321 150.609C493.138 150.633 492.986 150.652 492.863 150.669C492.575 150.705 492.311 150.767 492.073 150.853C491.837 150.939 491.649 151.063 491.506 151.226C491.367 151.385 491.297 151.597 491.297 151.862C491.297 152.23 491.433 152.509 491.705 152.697C491.977 152.883 492.323 152.976 492.744 152.976ZM501.734 146.364V147.557H497.563V146.364H501.734ZM498.681 144.534H500.168V151.758C500.168 152.046 500.211 152.263 500.297 152.409C500.383 152.552 500.494 152.649 500.63 152.702C500.769 152.752 500.92 152.777 501.083 152.777C501.202 152.777 501.306 152.769 501.396 152.752C501.485 152.736 501.555 152.722 501.605 152.712L501.873 153.94C501.787 153.973 501.664 154.007 501.505 154.04C501.346 154.076 501.147 154.096 500.909 154.099C500.517 154.106 500.153 154.036 499.815 153.891C499.477 153.745 499.203 153.519 498.994 153.214C498.786 152.91 498.681 152.527 498.681 152.066V144.534ZM505.6 154.169C505.117 154.169 504.679 154.08 504.288 153.901C503.897 153.718 503.587 153.455 503.358 153.11C503.133 152.765 503.02 152.343 503.02 151.842C503.02 151.411 503.103 151.057 503.269 150.778C503.435 150.5 503.658 150.28 503.94 150.117C504.222 149.955 504.537 149.832 504.885 149.749C505.233 149.666 505.587 149.603 505.949 149.56C506.406 149.507 506.777 149.464 507.062 149.431C507.347 149.395 507.554 149.337 507.684 149.257C507.813 149.178 507.877 149.048 507.877 148.869V148.835C507.877 148.4 507.755 148.064 507.51 147.825C507.268 147.587 506.906 147.467 506.426 147.467C505.925 147.467 505.531 147.578 505.243 147.8C504.958 148.019 504.76 148.263 504.651 148.531L503.254 148.213C503.42 147.749 503.662 147.375 503.98 147.089C504.301 146.801 504.671 146.592 505.088 146.463C505.506 146.33 505.945 146.264 506.406 146.264C506.711 146.264 507.034 146.301 507.375 146.374C507.72 146.443 508.042 146.572 508.34 146.761C508.641 146.95 508.888 147.22 509.081 147.572C509.273 147.92 509.369 148.372 509.369 148.929V154H507.917V152.956H507.858C507.761 153.148 507.617 153.337 507.425 153.523C507.233 153.708 506.986 153.862 506.684 153.985C506.383 154.108 506.021 154.169 505.6 154.169ZM505.924 152.976C506.335 152.976 506.686 152.895 506.978 152.732C507.273 152.57 507.496 152.358 507.649 152.096C507.805 151.831 507.882 151.547 507.882 151.246V150.261C507.829 150.314 507.727 150.364 507.574 150.411C507.425 150.454 507.254 150.492 507.062 150.525C506.87 150.555 506.683 150.583 506.5 150.609C506.318 150.633 506.166 150.652 506.043 150.669C505.755 150.705 505.491 150.767 505.252 150.853C505.017 150.939 504.828 151.063 504.686 151.226C504.547 151.385 504.477 151.597 504.477 151.862C504.477 152.23 504.613 152.509 504.885 152.697C505.156 152.883 505.503 152.976 505.924 152.976ZM514.983 146.364V147.557H510.668V146.364H514.983ZM511.851 154V145.479C511.851 145.001 511.955 144.605 512.164 144.29C512.373 143.972 512.65 143.735 512.994 143.58C513.339 143.42 513.714 143.341 514.118 143.341C514.416 143.341 514.672 143.366 514.884 143.415C515.096 143.462 515.253 143.505 515.356 143.545L515.008 144.748C514.938 144.728 514.849 144.705 514.74 144.678C514.63 144.648 514.498 144.634 514.342 144.634C513.981 144.634 513.722 144.723 513.566 144.902C513.414 145.081 513.338 145.339 513.338 145.678V154H511.851ZM519.433 154.154C518.717 154.154 518.092 153.99 517.558 153.662C517.025 153.334 516.61 152.875 516.316 152.285C516.021 151.695 515.873 151.005 515.873 150.217C515.873 149.424 516.021 148.732 516.316 148.138C516.61 147.545 517.025 147.085 517.558 146.756C518.092 146.428 518.717 146.264 519.433 146.264C520.149 146.264 520.773 146.428 521.307 146.756C521.841 147.085 522.255 147.545 522.55 148.138C522.845 148.732 522.992 149.424 522.992 150.217C522.992 151.005 522.845 151.695 522.55 152.285C522.255 152.875 521.841 153.334 521.307 153.662C520.773 153.99 520.149 154.154 519.433 154.154ZM519.438 152.906C519.902 152.906 520.286 152.784 520.591 152.538C520.896 152.293 521.121 151.967 521.267 151.559C521.416 151.151 521.491 150.702 521.491 150.212C521.491 149.724 521.416 149.277 521.267 148.869C521.121 148.458 520.896 148.129 520.591 147.88C520.286 147.631 519.902 147.507 519.438 147.507C518.97 147.507 518.583 147.631 518.274 147.88C517.969 148.129 517.742 148.458 517.593 148.869C517.447 149.277 517.374 149.724 517.374 150.212C517.374 150.702 517.447 151.151 517.593 151.559C517.742 151.967 517.969 152.293 518.274 152.538C518.583 152.784 518.97 152.906 519.438 152.906ZM524.652 154V146.364H526.088V147.577H526.168C526.307 147.166 526.552 146.843 526.904 146.607C527.258 146.369 527.659 146.249 528.107 146.249C528.2 146.249 528.309 146.253 528.435 146.259C528.564 146.266 528.665 146.274 528.738 146.284V147.706C528.679 147.689 528.573 147.671 528.42 147.651C528.268 147.628 528.115 147.616 527.963 147.616C527.611 147.616 527.298 147.691 527.023 147.84C526.751 147.986 526.536 148.19 526.377 148.452C526.218 148.71 526.138 149.005 526.138 149.337V154H524.652ZM530.025 154V146.364H531.452V147.607H531.546C531.705 147.186 531.965 146.857 532.327 146.622C532.688 146.384 533.12 146.264 533.624 146.264C534.135 146.264 534.562 146.384 534.907 146.622C535.255 146.861 535.512 147.189 535.677 147.607H535.757C535.939 147.199 536.229 146.874 536.627 146.632C537.025 146.387 537.499 146.264 538.049 146.264C538.742 146.264 539.307 146.481 539.744 146.915C540.185 147.35 540.405 148.004 540.405 148.879V154H538.919V149.018C538.919 148.501 538.778 148.127 538.496 147.895C538.215 147.663 537.878 147.547 537.487 147.547C537.003 147.547 536.627 147.696 536.358 147.994C536.09 148.289 535.956 148.669 535.956 149.133V154H534.474V148.924C534.474 148.51 534.345 148.177 534.086 147.925C533.828 147.673 533.492 147.547 533.077 147.547C532.796 147.547 532.535 147.621 532.297 147.771C532.061 147.916 531.871 148.12 531.725 148.382C531.582 148.644 531.511 148.947 531.511 149.292V154H530.025ZM544.62 154.169C544.136 154.169 543.699 154.08 543.308 153.901C542.916 153.718 542.607 153.455 542.378 153.11C542.152 152.765 542.04 152.343 542.04 151.842C542.04 151.411 542.123 151.057 542.288 150.778C542.454 150.5 542.678 150.28 542.96 150.117C543.241 149.955 543.556 149.832 543.904 149.749C544.252 149.666 544.607 149.603 544.968 149.56C545.425 149.507 545.797 149.464 546.082 149.431C546.367 149.395 546.574 149.337 546.703 149.257C546.832 149.178 546.897 149.048 546.897 148.869V148.835C546.897 148.4 546.774 148.064 546.529 147.825C546.287 147.587 545.926 147.467 545.445 147.467C544.945 147.467 544.55 147.578 544.262 147.8C543.977 148.019 543.78 148.263 543.67 148.531L542.273 148.213C542.439 147.749 542.681 147.375 542.999 147.089C543.321 146.801 543.69 146.592 544.108 146.463C544.526 146.33 544.965 146.264 545.425 146.264C545.73 146.264 546.054 146.301 546.395 146.374C546.74 146.443 547.061 146.572 547.359 146.761C547.661 146.95 547.908 147.22 548.1 147.572C548.292 147.92 548.388 148.372 548.388 148.929V154H546.937V152.956H546.877C546.781 153.148 546.637 153.337 546.445 153.523C546.252 153.708 546.005 153.862 545.704 153.985C545.402 154.108 545.041 154.169 544.62 154.169ZM544.943 152.976C545.354 152.976 545.705 152.895 545.997 152.732C546.292 152.57 546.516 152.358 546.668 152.096C546.824 151.831 546.902 151.547 546.902 151.246V150.261C546.849 150.314 546.746 150.364 546.594 150.411C546.445 150.454 546.274 150.492 546.082 150.525C545.889 150.555 545.702 150.583 545.52 150.609C545.338 150.633 545.185 150.652 545.062 150.669C544.774 150.705 544.511 150.767 544.272 150.853C544.037 150.939 543.848 151.063 543.705 151.226C543.566 151.385 543.496 151.597 543.496 151.862C543.496 152.23 543.632 152.509 543.904 152.697C544.176 152.883 544.522 152.976 544.943 152.976Z" fill="white"/>
<defs>
<linearGradient id="paint0_linear_4_195" x1="-100.5" y1="-145.5" x2="162" y2="110.5" gradientUnits="userSpaceOnUse">
<stop stop-color="#0019FF"/>
<stop offset="1" stop-color="white"/>
</linearGradient>
<linearGradient id="paint1_linear_4_195" x1="241" y1="-60" x2="459.5" y2="210.5" gradientUnits="userSpaceOnUse">
<stop stop-color="#0019FF"/>
<stop offset="1" stop-color="white"/>
</linearGradient>
</defs>
</svg>
