<svg width="167" height="47" viewBox="0 0 167 47" fill="none" xmlns="http://www.w3.org/2000/svg">
<path d="M72.7585 9.81818H78.2301V28.0739C78.2301 29.7614 77.8509 31.2273 77.0923 32.4716C76.3423 33.7159 75.2983 34.6747 73.9602 35.348C72.6222 36.0213 71.0668 36.358 69.294 36.358C67.7173 36.358 66.2855 36.081 64.9986 35.527C63.7202 34.9645 62.706 34.1122 61.956 32.9702C61.206 31.8196 60.8352 30.375 60.8438 28.6364H66.3537C66.3707 29.3267 66.5114 29.919 66.7756 30.4134C67.0483 30.8991 67.419 31.2741 67.8878 31.5384C68.3651 31.794 68.9276 31.9219 69.5753 31.9219C70.2571 31.9219 70.8324 31.777 71.3011 31.4872C71.7784 31.1889 72.1406 30.7543 72.3878 30.1832C72.6349 29.6122 72.7585 28.9091 72.7585 28.0739V9.81818ZM91.5767 36.3835C89.5909 36.3835 87.8736 35.9616 86.4247 35.1179C84.9844 34.2656 83.8722 33.081 83.0881 31.5639C82.304 30.0384 81.9119 28.2699 81.9119 26.2585C81.9119 24.2301 82.304 22.4574 83.0881 20.9403C83.8722 19.4148 84.9844 18.2301 86.4247 17.3864C87.8736 16.5341 89.5909 16.108 91.5767 16.108C93.5625 16.108 95.2756 16.5341 96.7159 17.3864C98.1648 18.2301 99.2812 19.4148 100.065 20.9403C100.849 22.4574 101.241 24.2301 101.241 26.2585C101.241 28.2699 100.849 30.0384 100.065 31.5639C99.2812 33.081 98.1648 34.2656 96.7159 35.1179C95.2756 35.9616 93.5625 36.3835 91.5767 36.3835ZM91.6023 32.1648C92.5057 32.1648 93.2599 31.9091 93.8651 31.3977C94.4702 30.8778 94.9261 30.1705 95.233 29.2756C95.5483 28.3807 95.706 27.3622 95.706 26.2202C95.706 25.0781 95.5483 24.0597 95.233 23.1648C94.9261 22.2699 94.4702 21.5625 93.8651 21.0426C93.2599 20.5227 92.5057 20.2628 91.6023 20.2628C90.6903 20.2628 89.9233 20.5227 89.3011 21.0426C88.6875 21.5625 88.223 22.2699 87.9077 23.1648C87.6009 24.0597 87.4474 25.0781 87.4474 26.2202C87.4474 27.3622 87.6009 28.3807 87.9077 29.2756C88.223 30.1705 88.6875 30.8778 89.3011 31.3977C89.9233 31.9091 90.6903 32.1648 91.6023 32.1648ZM121.121 21.9631L116.135 22.2699C116.05 21.8437 115.866 21.4602 115.585 21.1193C115.304 20.7699 114.933 20.4929 114.473 20.2884C114.021 20.0753 113.48 19.9688 112.849 19.9688C112.006 19.9688 111.294 20.1477 110.714 20.5057C110.135 20.8551 109.845 21.3239 109.845 21.9119C109.845 22.3807 110.033 22.777 110.408 23.1009C110.783 23.4247 111.426 23.6847 112.338 23.8807L115.892 24.5966C117.801 24.9886 119.224 25.6193 120.162 26.4886C121.099 27.358 121.568 28.5 121.568 29.9148C121.568 31.2017 121.189 32.331 120.43 33.3026C119.68 34.2741 118.649 35.0327 117.337 35.5781C116.033 36.1151 114.528 36.3835 112.824 36.3835C110.224 36.3835 108.153 35.8423 106.611 34.7599C105.077 33.669 104.178 32.1861 103.913 30.3111L109.27 30.0298C109.432 30.8224 109.824 31.4276 110.446 31.8452C111.068 32.2543 111.865 32.4588 112.837 32.4588C113.791 32.4588 114.558 32.2756 115.138 31.9091C115.726 31.5341 116.024 31.0526 116.033 30.4645C116.024 29.9702 115.815 29.5653 115.406 29.25C114.997 28.9261 114.366 28.679 113.514 28.5085L110.114 27.831C108.196 27.4474 106.768 26.7827 105.831 25.8366C104.902 24.8906 104.438 23.6847 104.438 22.2188C104.438 20.9574 104.778 19.8707 105.46 18.9588C106.151 18.0469 107.118 17.3438 108.362 16.8494C109.615 16.3551 111.081 16.108 112.76 16.108C115.24 16.108 117.192 16.6321 118.615 17.6804C120.047 18.7287 120.882 20.1562 121.121 21.9631ZM137.59 27.6392V16.3636H143.036V36H137.807V32.4332H137.603C137.159 33.5838 136.422 34.5085 135.391 35.2074C134.368 35.9062 133.12 36.2557 131.645 36.2557C130.333 36.2557 129.178 35.9574 128.181 35.3608C127.184 34.7642 126.404 33.9162 125.841 32.8168C125.287 31.7173 125.006 30.4006 124.998 28.8665V16.3636H130.444V27.8949C130.452 29.054 130.763 29.9702 131.377 30.6435C131.99 31.3168 132.813 31.6534 133.844 31.6534C134.5 31.6534 135.114 31.5043 135.685 31.206C136.256 30.8991 136.716 30.4474 137.066 29.8509C137.424 29.2543 137.598 28.517 137.59 27.6392ZM156.341 36.3835C154.321 36.3835 152.582 35.9744 151.125 35.1562C149.676 34.3295 148.56 33.1619 147.776 31.6534C146.991 30.1364 146.599 28.3423 146.599 26.2713C146.599 24.2514 146.991 22.4787 147.776 20.9531C148.56 19.4276 149.663 18.2386 151.087 17.3864C152.518 16.5341 154.197 16.108 156.124 16.108C157.419 16.108 158.625 16.3168 159.741 16.7344C160.866 17.1435 161.847 17.7614 162.682 18.5881C163.526 19.4148 164.182 20.4545 164.651 21.7074C165.119 22.9517 165.354 24.4091 165.354 26.0795V27.5753H148.773V24.2003H160.227C160.227 23.4162 160.057 22.7216 159.716 22.1165C159.375 21.5114 158.902 21.0384 158.297 20.6974C157.7 20.348 157.006 20.1733 156.213 20.1733C155.386 20.1733 154.653 20.3651 154.014 20.7486C153.384 21.1236 152.889 21.6307 152.531 22.2699C152.173 22.9006 151.99 23.6037 151.982 24.3793V27.5881C151.982 28.5597 152.161 29.3991 152.518 30.1065C152.885 30.8139 153.401 31.3594 154.065 31.7429C154.73 32.1264 155.518 32.3182 156.43 32.3182C157.036 32.3182 157.589 32.233 158.092 32.0625C158.595 31.892 159.026 31.6364 159.384 31.2955C159.741 30.9545 160.014 30.5369 160.202 30.0426L165.239 30.375C164.983 31.5852 164.459 32.642 163.666 33.5455C162.882 34.4403 161.868 35.1392 160.624 35.642C159.388 36.1364 157.96 36.3835 156.341 36.3835ZM154.04 13.8324L156.75 8.01562H161.787L157.888 13.8324H154.04Z" fill="white"/>
<path d="M29 18.5L15.5 2L2 18.5L15.5 44.5L29 18.5Z" stroke="white" stroke-width="2"/>
<path d="M15.5 3V43.5M15.5 3L8.5 18.5L15.5 43.5M15.5 3L23.5 18.5L15.5 43.5" stroke="white" stroke-width="2"/>
</svg>
