<svg width="150" height="150" viewBox="0 0 150 150" fill="none" xmlns="http://www.w3.org/2000/svg">
<g id="Rounded" filter="url(#filter0_b_175_41)">
<rect width="150" height="150" rx="75" fill="#0085FF" fill-opacity="0.2"/>
<g id="Letters">
<path id="J" d="M62.0899 141.02L60.299 140.675L61.4504 134.7C61.5568 134.147 61.7734 133.692 62.1002 133.332C62.4242 132.972 62.8264 132.724 63.3068 132.588C63.7872 132.452 64.3175 132.44 64.8978 132.552C65.4139 132.651 65.865 132.832 66.2513 133.095C66.6343 133.36 66.9125 133.702 67.086 134.124C67.2589 134.547 67.2891 135.044 67.1767 135.612L65.3732 135.265C65.4112 135.038 65.4025 134.835 65.3472 134.656C65.2886 134.48 65.1909 134.334 65.0541 134.218C64.914 134.104 64.738 134.027 64.5259 133.986C64.3028 133.943 64.1053 133.954 63.9336 134.02C63.7586 134.087 63.6126 134.206 63.4957 134.378C63.3788 134.549 63.294 134.771 63.2413 135.045L62.0899 141.02Z" fill="white"/>
<path id="O" d="M46.7263 131.135C47.111 130.265 47.6032 129.597 48.2031 129.132C48.8003 128.666 49.4534 128.398 50.1623 128.326C50.8674 128.255 51.572 128.376 52.2762 128.687C52.9856 129 53.5511 129.443 53.9726 130.014C54.394 130.585 54.6336 131.249 54.6911 132.004C54.7487 132.759 54.5857 133.571 54.2022 134.439C53.8176 135.309 53.3266 135.978 52.7293 136.444C52.1321 136.91 51.4809 137.178 50.7758 137.248C50.0695 137.321 49.3617 137.201 48.6523 136.888C47.9481 136.576 47.3853 136.135 46.9638 135.564C46.5385 134.994 46.2971 134.331 46.2396 133.576C46.1794 132.819 46.3416 132.006 46.7263 131.135ZM48.4374 131.892C48.1883 132.455 48.0626 132.968 48.0604 133.43C48.0556 133.891 48.161 134.288 48.3766 134.623C48.5922 134.957 48.904 135.215 49.312 135.395C49.72 135.575 50.1202 135.632 50.5126 135.567C50.905 135.501 51.2713 135.312 51.6113 134.999C51.9487 134.685 52.2419 134.247 52.4911 133.683C52.7403 133.119 52.8673 132.607 52.872 132.146C52.8742 131.684 52.7675 131.286 52.5519 130.952C52.3363 130.617 52.0245 130.36 51.6165 130.18C51.2086 129.999 50.8084 129.942 50.4159 130.008C50.0235 130.074 49.6586 130.263 49.3212 130.577C48.9812 130.889 48.6866 131.328 48.4374 131.892Z" fill="white"/>
<path id="S" d="M35.2664 125.795C35.0855 126.09 35.0403 126.391 35.1308 126.699C35.2214 127.007 35.443 127.295 35.7958 127.563C36.0355 127.745 36.2637 127.865 36.4804 127.923C36.6953 127.983 36.8916 127.988 37.0692 127.937C37.2445 127.885 37.389 127.784 37.5025 127.635C37.6016 127.514 37.6581 127.386 37.6721 127.25C37.6838 127.113 37.6646 126.971 37.6144 126.826C37.5625 126.683 37.4888 126.536 37.3932 126.385C37.2959 126.236 37.1844 126.087 37.0587 125.938L36.5481 125.314C36.2966 125.016 36.0873 124.714 35.92 124.408C35.7527 124.102 35.6392 123.796 35.5793 123.49C35.5194 123.184 35.5237 122.881 35.5922 122.579C35.6584 122.276 35.8004 121.979 36.0183 121.688C36.3439 121.265 36.7327 120.979 37.1849 120.83C37.633 120.682 38.1237 120.675 38.6569 120.809C39.1861 120.944 39.7334 121.226 40.2987 121.656C40.8595 122.083 41.2826 122.54 41.568 123.028C41.8511 123.515 41.981 124.015 41.9577 124.529C41.9304 125.044 41.7324 125.555 41.3636 126.064L39.9424 124.983C40.1037 124.738 40.1849 124.493 40.186 124.247C40.1831 124.002 40.1122 123.765 39.9734 123.534C39.8306 123.304 39.6326 123.093 39.3793 122.9C39.1306 122.711 38.8871 122.583 38.6489 122.516C38.4085 122.448 38.1883 122.439 37.9886 122.49C37.7888 122.542 37.6253 122.651 37.498 122.819C37.3793 122.975 37.326 123.141 37.3378 123.318C37.3475 123.493 37.4121 123.685 37.5317 123.894C37.6491 124.101 37.8112 124.331 38.018 124.585L38.63 125.35C39.1073 125.938 39.4004 126.512 39.5091 127.073C39.6179 127.634 39.4759 128.17 39.0833 128.682C38.7657 129.104 38.3743 129.387 37.9091 129.529C37.4417 129.67 36.9419 129.677 36.4098 129.551C35.8777 129.424 35.3584 129.169 34.8518 128.783C34.3363 128.391 33.9533 127.961 33.7031 127.492C33.4505 127.022 33.3363 126.548 33.3606 126.07C33.3848 125.592 33.5508 125.144 33.8588 124.725L35.2664 125.795Z" fill="white"/>
<path id="U" d="M22.9667 116.995L21.7853 115.577L26.1388 111.948C26.6276 111.541 27.1526 111.301 27.7138 111.229C28.2733 111.155 28.8292 111.241 29.3818 111.486C29.9322 111.734 30.4384 112.135 30.9004 112.689C31.3643 113.246 31.6684 113.817 31.8129 114.403C31.9552 114.991 31.9395 115.553 31.7657 116.09C31.5919 116.627 31.2606 117.099 30.7718 117.507L26.4183 121.135L25.2369 119.718L29.4692 116.19C29.7245 115.977 29.9051 115.732 30.0109 115.456C30.1149 115.177 30.1381 114.887 30.0806 114.588C30.0231 114.288 29.8807 114.002 29.6533 113.729C29.4241 113.454 29.1682 113.262 28.8855 113.154C28.6011 113.043 28.3132 113.015 28.0218 113.069C27.7287 113.121 27.4544 113.254 27.1991 113.467L22.9667 116.995Z" fill="white"/>
<path id="&#195;&#137;" d="M24.9723 104.594L17.188 108.539L14.5292 103.294L15.8861 102.606L17.7107 106.206L19.5655 105.266L17.8777 101.936L19.2347 101.248L20.9225 104.578L22.7811 103.636L20.9488 100.021L22.3058 99.3331L24.9723 104.594ZM15.395 106.868L13.2571 106.939L12.498 105.442L14.8151 105.724L15.395 106.868Z" fill="white"/>
<path id="M" d="M9.20897 86.2821L8.9978 84.0164L14.6131 81.0792L14.6036 80.9774L8.54225 79.1285L8.33109 76.8627L17.0207 76.0528L17.1868 77.8349L11.5309 78.362L11.5376 78.4341L17.3607 80.1598L17.4738 81.3732L12.0487 84.1472L12.0554 84.2193L17.7325 83.6902L17.8986 85.4723L9.20897 86.2821Z" fill="white"/>
<path id="E" d="M17.3746 69.8605L8.74471 68.5605L9.62073 62.7454L11.1251 62.972L10.5239 66.9625L12.5803 67.2723L13.1363 63.581L14.6407 63.8076L14.0846 67.4989L16.1451 67.8093L16.7488 63.802L18.2532 64.0286L17.3746 69.8605Z" fill="white"/>
<path id="N" d="M14.4484 47.462L22.5683 50.6606L21.9842 52.1435L15.482 53.6629L15.4585 53.7224L20.5692 55.7356L19.8929 57.4524L11.7729 54.2538L12.3664 52.7471L18.8538 51.2538L18.8819 51.1825L13.7752 49.1708L14.4484 47.462Z" fill="white"/>
<path id="D" d="M27.33 42.5018L25.5593 45.0387L18.4027 40.0438L20.188 37.4859C20.6904 36.766 21.2662 36.2464 21.9153 35.9269C22.5621 35.6057 23.2498 35.4915 23.9784 35.5843C24.7087 35.6748 25.4453 35.9793 26.1885 36.498C26.934 37.0183 27.4762 37.6064 27.8153 38.2622C28.156 38.9158 28.2867 39.6046 28.2074 40.3288C28.1297 41.0506 27.8373 41.7749 27.33 42.5018ZM25.3189 42.6208L25.9896 41.6598C26.3018 41.2125 26.4852 40.781 26.5398 40.3653C26.5937 39.9456 26.5065 39.5418 26.2784 39.1539C26.0495 38.762 25.6683 38.38 25.1349 38.0076C24.606 37.6385 24.1194 37.415 23.675 37.3369C23.2323 37.2565 22.8252 37.3136 22.4538 37.5083C22.0823 37.7029 21.7405 38.0238 21.4284 38.4711L20.7552 39.4356L25.3189 42.6208Z" fill="white"/>
<path id="O_2" d="M37.0798 25.6957C37.7066 26.4118 38.1042 27.1399 38.2724 27.8799C38.4428 28.618 38.4109 29.3235 38.1769 29.9965C37.9432 30.6655 37.5367 31.2535 36.9574 31.7606C36.3738 32.2714 35.734 32.5973 35.0381 32.7382C34.3422 32.8792 33.6398 32.8164 32.9307 32.5498C32.2217 32.2832 31.5546 31.7929 30.9297 31.0789C30.3029 30.3628 29.9043 29.6356 29.7339 28.8975C29.5636 28.1594 29.5952 27.4559 29.829 26.7869C30.0608 26.1158 30.4686 25.5248 31.0521 25.014C31.6315 24.5069 32.2691 24.1829 32.965 24.042C33.6611 23.897 34.3637 23.9578 35.0728 24.2244C35.784 24.4891 36.453 24.9796 37.0798 25.6957ZM35.6722 26.9278C35.2661 26.4639 34.8542 26.1336 34.4365 25.9367C34.0209 25.7379 33.616 25.6657 33.2218 25.72C32.8276 25.7743 32.4627 25.9484 32.1271 26.2421C31.7915 26.5359 31.5707 26.8745 31.4646 27.2581C31.3586 27.6416 31.3755 28.0534 31.5153 28.4935C31.6573 28.9318 31.9313 29.3829 32.3374 29.8468C32.7434 30.3106 33.1542 30.642 33.5698 30.8407C33.9876 31.0376 34.3935 31.1089 34.7877 31.0546C35.1819 31.0003 35.5468 30.8262 35.8824 30.5325C36.218 30.2387 36.4389 29.9001 36.5449 29.5165C36.6509 29.133 36.633 28.7221 36.491 28.2838C36.3511 27.8437 36.0782 27.3917 35.6722 26.9278Z" fill="white"/>
<path id="N_2" d="M47.9256 14.1442L51.9289 21.8991L50.5127 22.6302L44.6192 19.4909L44.5624 19.5203L47.0821 24.4012L45.4425 25.2476L41.4392 17.4926L42.8781 16.7498L48.7431 19.899L48.8113 19.8638L46.2936 14.9867L47.9256 14.1442Z" fill="white"/>
<path id="&#195;&#135;" d="M64.0368 12.306L62.2212 12.7389C62.132 12.5119 62.0146 12.3194 61.8688 12.1614C61.7225 12.0007 61.5536 11.8745 61.3624 11.7828C61.1711 11.6911 60.9623 11.6358 60.7358 11.6168C60.512 11.5971 60.2786 11.6163 60.0354 11.6743C59.596 11.7791 59.2393 11.9795 58.9653 12.2756C58.6906 12.5689 58.5129 12.9442 58.4321 13.4015C58.3507 13.8561 58.3801 14.3777 58.5205 14.9663C58.6648 15.5715 58.8759 16.0586 59.1537 16.4275C59.4342 16.7958 59.7626 17.046 60.1388 17.1783C60.5149 17.3105 60.9172 17.3256 61.3455 17.2235C61.5859 17.1661 61.8008 17.0813 61.9902 16.969C62.1823 16.856 62.3439 16.7196 62.4752 16.5598C62.6059 16.3972 62.7026 16.215 62.7654 16.0131C62.831 15.8105 62.8575 15.591 62.8449 15.3545L64.6625 14.9298C64.7084 15.3307 64.6806 15.7345 64.579 16.1413C64.4795 16.5447 64.3062 16.9263 64.0591 17.2861C63.814 17.6424 63.4943 17.9552 63.1 18.2245C62.7078 18.4903 62.2395 18.6881 61.6951 18.818C60.9379 18.9985 60.22 18.9886 59.5414 18.7883C58.8656 18.5873 58.2775 18.2033 57.7772 17.6363C57.2797 17.0686 56.9209 16.3233 56.7008 15.4003C56.48 14.4745 56.4663 13.6454 56.6596 12.913C56.853 12.1806 57.2075 11.5732 57.7234 11.091C58.2386 10.606 58.8692 10.2745 59.6154 10.0966C60.1072 9.97929 60.5797 9.93965 61.0327 9.97765C61.4884 10.015 61.911 10.1274 62.3003 10.315C62.689 10.4997 63.0311 10.7584 63.3265 11.091C63.6247 11.4229 63.8615 11.8279 64.0368 12.306ZM61.218 18.7828L62.0304 18.589L62.0501 18.9655C62.3452 18.9418 62.6027 18.9929 62.8226 19.1186C63.0451 19.2437 63.1924 19.451 63.2644 19.7405C63.3653 20.1516 63.2527 20.5245 62.9266 20.8593C62.6011 21.1968 62.0916 21.4483 61.398 21.6137L61.1936 20.8301C61.5418 20.747 61.8038 20.6393 61.9795 20.5068C62.1587 20.3765 62.2314 20.2219 62.1975 20.0431C62.1628 19.8732 62.0673 19.7602 61.9108 19.704C61.7543 19.6479 61.528 19.6361 61.2321 19.6687L61.218 18.7828Z" fill="white"/>
<path id="A" d="M73.7627 17.0185L71.7855 17.002L74.8712 8.30019L77.2489 8.32007L80.1844 17.0722L78.2072 17.0557L76.0775 10.3047L76.0093 10.3041L73.7627 17.0185ZM73.6678 13.5872L78.3381 13.6262L78.3261 15.0665L73.6558 15.0275L73.6678 13.5872Z" fill="white"/>
<path id="&#226;&#128;&#162;" d="M95.9146 19.0136C95.5918 18.8954 95.3259 18.7087 95.1168 18.4536C94.9086 18.1959 94.7734 17.9043 94.7111 17.5789C94.6514 17.2545 94.6807 16.9309 94.7989 16.6081C94.9181 16.2827 95.1048 16.0167 95.3589 15.8103C95.6167 15.6022 95.9078 15.4683 96.2322 15.4086C96.5576 15.3463 96.8817 15.3742 97.2045 15.4925C97.5299 15.6117 97.7953 15.7997 98.0008 16.0565C98.2099 16.3116 98.3443 16.6013 98.404 16.9257C98.4673 17.2485 98.4393 17.5725 98.3201 17.898C98.2019 18.2208 98.0139 18.4862 97.7561 18.6943C97.501 18.9034 97.2107 19.0392 96.8854 19.1015C96.5636 19.1621 96.24 19.1329 95.9146 19.0136Z" fill="white"/>
<path id="F" d="M109.917 28.1561L115.442 21.4006L119.915 25.0589L118.952 26.2365L115.907 23.7464L114.591 25.3561L117.338 27.6034L116.375 28.781L113.627 26.5337L111.345 29.3243L109.917 28.1561Z" fill="white"/>
<path id="R" d="M119.283 36.6863L126.135 31.2813L128.268 33.9847C128.676 34.5022 128.932 35.0169 129.035 35.5287C129.143 36.041 129.103 36.5259 128.918 36.9834C128.736 37.4414 128.419 37.8489 127.967 38.2061C127.511 38.565 127.043 38.7757 126.56 38.838C126.079 38.8986 125.605 38.8113 125.137 38.576C124.671 38.343 124.231 37.9632 123.816 37.4368L122.388 35.6268L123.552 34.7084L124.795 36.2842C125.013 36.5608 125.232 36.7606 125.453 36.8837C125.673 37.0068 125.894 37.0531 126.116 37.0227C126.34 36.9945 126.564 36.8916 126.789 36.7139C127.017 36.5344 127.173 36.3374 127.257 36.1228C127.342 35.9104 127.353 35.68 127.287 35.4315C127.225 35.1835 127.084 34.9201 126.864 34.6413L126.094 33.6643L120.426 38.135L119.283 36.6863ZM125.32 37.927L123.545 42.0897L122.284 40.4904L124.088 36.3645L125.32 37.927Z" fill="white"/>
<path id="O_3" d="M133.966 52.4292C133.102 52.8292 132.291 53.0059 131.534 52.9591C130.778 52.9149 130.11 52.6858 129.53 52.2719C128.954 51.8594 128.504 51.3038 128.18 50.6053C127.854 49.9015 127.721 49.1959 127.782 48.4885C127.843 47.7811 128.1 47.1246 128.556 46.5192C129.011 45.9138 129.669 45.4117 130.53 45.0129C131.394 44.6129 132.204 44.435 132.96 44.4792C133.716 44.5234 134.382 44.7518 134.959 45.1643C135.537 45.5756 135.99 46.1331 136.316 46.8369C136.639 47.5355 136.771 48.2385 136.71 48.9459C136.653 49.6548 136.397 50.3119 135.942 50.9173C135.488 51.5252 134.829 52.0292 133.966 52.4292ZM133.179 50.7318C133.739 50.4727 134.172 50.1704 134.478 49.8249C134.786 49.482 134.969 49.1138 135.028 48.7202C135.087 48.3267 135.022 47.9276 134.835 47.5229C134.647 47.1181 134.384 46.811 134.046 46.6013C133.708 46.3916 133.308 46.292 132.846 46.3023C132.386 46.3153 131.876 46.4513 131.317 46.7104C130.757 46.9695 130.324 47.2705 130.016 47.6134C129.709 47.9589 129.527 48.3284 129.468 48.7219C129.409 49.1154 129.474 49.5146 129.661 49.9193C129.849 50.324 130.111 50.6312 130.45 50.8409C130.788 51.0505 131.187 51.1489 131.648 51.1359C132.109 51.1256 132.62 50.9909 133.179 50.7318Z" fill="white"/>
<path id="N_3" d="M141.999 66.0871L133.431 67.7467L133.128 66.182L137.798 61.4099L137.786 61.3472L132.394 62.3917L132.043 60.5802L140.611 58.9206L140.919 60.5104L136.246 65.2524L136.261 65.3277L141.65 64.284L141.999 66.0871Z" fill="white"/>
<path id="T" d="M141.138 74.0715L142.658 74.1365L142.352 81.2976L140.832 81.2325L140.946 78.5631L133.747 78.255L133.825 76.4328L141.024 76.7409L141.138 74.0715Z" fill="white"/>
<path id="-" d="M135.699 92.6842L134.304 92.3253L135.295 88.4707L136.69 88.8295L135.699 92.6842Z" fill="white"/>
<path id="E_2" d="M129.369 97.9137L137.218 101.729L134.647 107.018L133.279 106.353L135.043 102.723L133.173 101.814L131.541 105.172L130.173 104.507L131.804 101.149L129.93 100.238L128.159 103.883L126.79 103.218L129.369 97.9137Z" fill="white"/>
<path id="N_4" d="M125.48 120.165L118.684 114.69L119.684 113.449L126.344 113.939L126.384 113.889L122.106 110.443L123.264 109.006L130.06 114.481L129.044 115.742L122.407 115.232L122.359 115.292L126.633 118.735L125.48 120.165Z" fill="white"/>
<path id="D_2" d="M111.706 121.057L114.152 119.164L119.493 126.066L117.026 127.975C116.332 128.512 115.627 128.837 114.912 128.948C114.199 129.061 113.509 128.965 112.841 128.659C112.171 128.355 111.559 127.845 111.004 127.128C110.448 126.409 110.106 125.686 109.978 124.959C109.848 124.233 109.928 123.537 110.22 122.869C110.509 122.204 111.005 121.6 111.706 121.057ZM113.661 121.543L112.734 122.261C112.302 122.594 111.999 122.952 111.823 123.332C111.646 123.717 111.609 124.128 111.711 124.566C111.812 125.009 112.062 125.487 112.46 126.001C112.855 126.512 113.253 126.87 113.654 127.077C114.052 127.286 114.458 127.353 114.87 127.278C115.283 127.203 115.705 126.999 116.136 126.665L117.066 125.945L113.661 121.543Z" fill="white"/>
<path id="&#226;&#128;&#162;_2" d="M94.323 132.219C94.6497 132.112 94.9742 132.095 95.2963 132.166C95.6192 132.239 95.9058 132.385 96.1561 132.602C96.4036 132.82 96.5808 133.092 96.6875 133.419C96.7952 133.749 96.813 134.073 96.741 134.392C96.6672 134.715 96.5213 135.001 96.3033 135.248C96.0862 135.498 95.8143 135.677 95.4875 135.784C95.1581 135.891 94.8332 135.908 94.5129 135.833C94.1908 135.762 93.906 135.617 93.6584 135.4C93.4091 135.185 93.2306 134.913 93.123 134.584C93.0162 134.257 92.9997 133.932 93.0735 133.609C93.1446 133.287 93.2887 133.001 93.5059 132.751C93.7212 132.504 93.9935 132.327 94.323 132.219Z" fill="white"/>
</g>
</g>
<defs>
<filter id="filter0_b_175_41" x="-10" y="-10" width="170" height="170" filterUnits="userSpaceOnUse" color-interpolation-filters="sRGB">
<feFlood flood-opacity="0" result="BackgroundImageFix"/>
<feGaussianBlur in="BackgroundImage" stdDeviation="5"/>
<feComposite in2="SourceAlpha" operator="in" result="effect1_backgroundBlur_175_41"/>
<feBlend mode="normal" in="SourceGraphic" in2="effect1_backgroundBlur_175_41" result="shape"/>
</filter>
</defs>
</svg>
