<svg width="150" height="150" viewBox="0 0 150 150" fill="none" xmlns="http://www.w3.org/2000/svg">
<g id="Rounded" filter="url(#filter0_b_175_41)">
<rect width="150" height="150" rx="75" fill="#F700FF" fill-opacity="0.25"/>
<g id="Letters">
<path id="J" d="M62.0897 141.02L60.2988 140.675L61.4502 134.7C61.5566 134.147 61.7732 133.692 62.0999 133.332C62.4239 132.972 62.8261 132.724 63.3065 132.588C63.787 132.452 64.3173 132.44 64.8975 132.552C65.4136 132.651 65.8648 132.832 66.2511 133.095C66.634 133.36 66.9123 133.702 67.0857 134.124C67.2586 134.547 67.2889 135.044 67.1764 135.612L65.3729 135.265C65.4109 135.038 65.4022 134.835 65.3469 134.656C65.2883 134.48 65.1906 134.334 65.0538 134.218C64.9138 134.104 64.7377 134.027 64.5257 133.986C64.3025 133.943 64.1051 133.954 63.9334 134.02C63.7584 134.087 63.6124 134.206 63.4955 134.378C63.3786 134.549 63.2938 134.771 63.2411 135.045L62.0897 141.02Z" fill="white"/>
<path id="O" d="M46.7261 131.135C47.1107 130.265 47.603 129.597 48.2028 129.132C48.8001 128.666 49.4532 128.398 50.162 128.326C50.8671 128.255 51.5718 128.376 52.276 128.687C52.9854 129 53.5508 129.443 53.9723 130.014C54.3938 130.585 54.6333 131.249 54.6909 132.004C54.7485 132.759 54.5855 133.571 54.202 134.439C53.8173 135.309 53.3264 135.978 52.7291 136.444C52.1318 136.91 51.4807 137.178 50.7756 137.248C50.0693 137.321 49.3615 137.201 48.6521 136.888C47.9479 136.576 47.385 136.135 46.9635 135.564C46.5383 134.994 46.2969 134.331 46.2393 133.576C46.1791 132.819 46.3414 132.006 46.7261 131.135ZM48.4372 131.892C48.188 132.455 48.0623 132.968 48.0601 133.43C48.0554 133.891 48.1608 134.288 48.3764 134.623C48.592 134.957 48.9038 135.215 49.3117 135.395C49.7197 135.575 50.1199 135.632 50.5124 135.567C50.9048 135.501 51.271 135.312 51.611 134.999C51.9484 134.685 52.2417 134.247 52.4909 133.683C52.74 133.119 52.867 132.607 52.8718 132.146C52.874 131.684 52.7673 131.286 52.5517 130.952C52.3361 130.617 52.0243 130.36 51.6163 130.18C51.2083 129.999 50.8081 129.942 50.4157 130.008C50.0232 130.074 49.6583 130.263 49.3209 130.577C48.9809 130.889 48.6864 131.328 48.4372 131.892Z" fill="white"/>
<path id="S" d="M35.2669 125.795C35.086 126.09 35.0408 126.391 35.1313 126.699C35.2219 127.007 35.4435 127.295 35.7963 127.563C36.036 127.745 36.2642 127.865 36.4808 127.923C36.6958 127.983 36.8921 127.988 37.0697 127.937C37.245 127.885 37.3895 127.784 37.503 127.635C37.6021 127.514 37.6586 127.386 37.6726 127.25C37.6843 127.113 37.6651 126.971 37.6149 126.826C37.563 126.683 37.4893 126.536 37.3937 126.385C37.2964 126.236 37.1849 126.087 37.0592 125.938L36.5486 125.314C36.2971 125.016 36.0878 124.714 35.9205 124.408C35.7532 124.102 35.6396 123.796 35.5798 123.49C35.5199 123.184 35.5242 122.881 35.5927 122.579C35.6589 122.276 35.8009 121.979 36.0188 121.688C36.3444 121.265 36.7332 120.979 37.1854 120.83C37.6335 120.682 38.1242 120.675 38.6574 120.809C39.1866 120.944 39.7339 121.226 40.2992 121.656C40.86 122.083 41.2831 122.54 41.5685 123.028C41.8516 123.515 41.9815 124.015 41.9582 124.529C41.9309 125.044 41.7329 125.555 41.3641 126.064L39.9429 124.983C40.1042 124.738 40.1854 124.493 40.1864 124.247C40.1835 124.002 40.1127 123.765 39.9739 123.534C39.8311 123.304 39.6331 123.093 39.3798 122.9C39.1311 122.711 38.8876 122.583 38.6494 122.516C38.4089 122.448 38.1888 122.439 37.989 122.49C37.7893 122.542 37.6257 122.651 37.4985 122.819C37.3798 122.975 37.3264 123.141 37.3383 123.318C37.348 123.493 37.4126 123.685 37.5322 123.894C37.6496 124.101 37.8117 124.331 38.0185 124.585L38.6305 125.35C39.1078 125.938 39.4008 126.512 39.5096 127.073C39.6184 127.634 39.4764 128.17 39.0838 128.682C38.7662 129.104 38.3748 129.387 37.9096 129.529C37.4422 129.67 36.9424 129.677 36.4103 129.551C35.8782 129.424 35.3589 129.169 34.8523 128.783C34.3368 128.391 33.9538 127.961 33.7035 127.492C33.451 127.022 33.3368 126.548 33.3611 126.07C33.3853 125.592 33.5513 125.144 33.8593 124.725L35.2669 125.795Z" fill="white"/>
<path id="U" d="M22.9672 116.995L21.7858 115.577L26.1392 111.948C26.6281 111.541 27.1531 111.301 27.7143 111.229C28.2737 111.155 28.8297 111.241 29.3823 111.486C29.9327 111.734 30.4389 112.135 30.9009 112.689C31.3648 113.246 31.6689 113.817 31.8134 114.403C31.9557 114.991 31.94 115.553 31.7662 116.09C31.5924 116.627 31.2611 117.099 30.7723 117.507L26.4188 121.135L25.2374 119.718L29.4697 116.19C29.725 115.977 29.9056 115.732 30.0114 115.456C30.1154 115.177 30.1386 114.887 30.0811 114.588C30.0236 114.288 29.8812 114.002 29.6538 113.729C29.4246 113.454 29.1687 113.262 28.886 113.154C28.6016 113.043 28.3137 113.015 28.0223 113.069C27.7291 113.121 27.4549 113.254 27.1996 113.467L22.9672 116.995Z" fill="white"/>
<path id="&#195;&#137;" d="M24.9728 104.594L17.1885 108.539L14.5296 103.294L15.8866 102.606L17.7112 106.206L19.566 105.266L17.8782 101.936L19.2352 101.248L20.9229 104.578L22.7816 103.636L20.9493 100.021L22.3063 99.3331L24.9728 104.594ZM15.3955 106.868L13.2576 106.939L12.4985 105.442L14.8155 105.724L15.3955 106.868Z" fill="white"/>
<path id="M" d="M9.20872 86.2821L8.99756 84.0164L14.6129 81.0792L14.6034 80.9774L8.54201 79.1285L8.33084 76.8627L17.0205 76.0528L17.1865 77.8349L11.5307 78.362L11.5374 78.4341L17.3604 80.1598L17.4735 81.3732L12.0484 84.1472L12.0552 84.2193L17.7323 83.6902L17.8983 85.4723L9.20872 86.2821Z" fill="white"/>
<path id="E" d="M17.3746 69.8605L8.74471 68.5605L9.62073 62.7454L11.1251 62.972L10.5239 66.9625L12.5803 67.2723L13.1363 63.581L14.6407 63.8076L14.0846 67.4989L16.1451 67.8093L16.7488 63.802L18.2532 64.0286L17.3746 69.8605Z" fill="white"/>
<path id="N" d="M14.4486 47.462L22.5686 50.6606L21.9845 52.1435L15.4822 53.6629L15.4588 53.7224L20.5694 55.7356L19.8932 57.4524L11.7732 54.2538L12.3667 52.7471L18.8541 51.2538L18.8822 51.1825L13.7755 49.1708L14.4486 47.462Z" fill="white"/>
<path id="D" d="M27.3302 42.5018L25.5596 45.0387L18.403 40.0438L20.1883 37.4859C20.6907 36.766 21.2665 36.2464 21.9156 35.9269C22.5624 35.6057 23.2501 35.4915 23.9787 35.5843C24.7089 35.6748 25.4456 35.9793 26.1887 36.498C26.9342 37.0183 27.4765 37.6064 27.8155 38.2622C28.1562 38.9158 28.2869 39.6046 28.2076 40.3288C28.13 41.0506 27.8375 41.7749 27.3302 42.5018ZM25.3192 42.6208L25.9899 41.6598C26.3021 41.2125 26.4854 40.781 26.54 40.3653C26.5939 39.9456 26.5068 39.5418 26.2786 39.1539C26.0498 38.762 25.6686 38.38 25.1351 38.0076C24.6063 37.6385 24.1197 37.415 23.6753 37.3369C23.2325 37.2565 22.8254 37.3136 22.454 37.5083C22.0826 37.7029 21.7408 38.0238 21.4286 38.4711L20.7555 39.4356L25.3192 42.6208Z" fill="white"/>
<path id="O_2" d="M37.0803 25.6957C37.7071 26.4118 38.1047 27.1399 38.2729 27.8799C38.4432 28.618 38.4114 29.3235 38.1774 29.9965C37.9437 30.6655 37.5372 31.2535 36.9579 31.7606C36.3743 32.2714 35.7345 32.5973 35.0386 32.7382C34.3427 32.8792 33.6403 32.8164 32.9312 32.5498C32.2221 32.2832 31.5551 31.7929 30.9302 31.0789C30.3034 30.3628 29.9048 29.6356 29.7344 28.8975C29.564 28.1594 29.5957 27.4559 29.8295 26.7869C30.0613 26.1158 30.469 25.5248 31.0526 25.014C31.632 24.5069 32.2696 24.1829 32.9655 24.042C33.6616 23.897 34.3642 23.9578 35.0733 24.2244C35.7845 24.4891 36.4535 24.9796 37.0803 25.6957ZM35.6726 26.9278C35.2666 26.4639 34.8547 26.1336 34.437 25.9367C34.0214 25.7379 33.6165 25.6657 33.2223 25.72C32.8281 25.7743 32.4632 25.9484 32.1276 26.2421C31.792 26.5359 31.5711 26.8745 31.4651 27.2581C31.3591 27.6416 31.376 28.0534 31.5158 28.4935C31.6578 28.9318 31.9318 29.3829 32.3379 29.8468C32.7439 30.3106 33.1547 30.642 33.5703 30.8407C33.9881 31.0376 34.394 31.1089 34.7882 31.0546C35.1824 31.0003 35.5473 30.8262 35.8829 30.5325C36.2185 30.2387 36.4394 29.9001 36.5454 29.5165C36.6514 29.133 36.6334 28.7221 36.4915 28.2838C36.3516 27.8437 36.0787 27.3917 35.6726 26.9278Z" fill="white"/>
<path id="N_2" d="M47.9253 14.1442L51.9286 21.8991L50.5125 22.6302L44.619 19.4909L44.5622 19.5203L47.0818 24.4012L45.4422 25.2476L41.4389 17.4926L42.8778 16.7498L48.7429 19.899L48.811 19.8638L46.2933 14.9867L47.9253 14.1442Z" fill="white"/>
<path id="&#195;&#135;" d="M64.0368 12.306L62.2212 12.7389C62.132 12.5119 62.0146 12.3194 61.8688 12.1614C61.7225 12.0007 61.5536 11.8745 61.3624 11.7828C61.1711 11.6911 60.9623 11.6358 60.7358 11.6168C60.512 11.5971 60.2786 11.6163 60.0354 11.6743C59.596 11.7791 59.2393 11.9795 58.9653 12.2756C58.6906 12.5689 58.5129 12.9442 58.4321 13.4015C58.3507 13.8561 58.3801 14.3777 58.5205 14.9663C58.6648 15.5715 58.8759 16.0586 59.1537 16.4275C59.4342 16.7958 59.7626 17.046 60.1388 17.1783C60.5149 17.3105 60.9172 17.3256 61.3455 17.2235C61.5859 17.1661 61.8008 17.0813 61.9902 16.969C62.1823 16.856 62.3439 16.7196 62.4752 16.5598C62.6059 16.3972 62.7026 16.215 62.7654 16.0131C62.831 15.8105 62.8575 15.591 62.8449 15.3545L64.6625 14.9298C64.7084 15.3307 64.6806 15.7345 64.579 16.1413C64.4795 16.5447 64.3062 16.9263 64.0591 17.2861C63.814 17.6424 63.4943 17.9552 63.1 18.2245C62.7078 18.4903 62.2395 18.6881 61.6951 18.818C60.9379 18.9985 60.22 18.9886 59.5414 18.7883C58.8656 18.5873 58.2775 18.2033 57.7772 17.6363C57.2797 17.0686 56.9209 16.3233 56.7008 15.4003C56.48 14.4745 56.4663 13.6454 56.6596 12.913C56.853 12.1806 57.2075 11.5732 57.7234 11.091C58.2386 10.606 58.8692 10.2745 59.6154 10.0966C60.1072 9.97929 60.5797 9.93965 61.0327 9.97765C61.4884 10.015 61.911 10.1274 62.3003 10.315C62.689 10.4997 63.0311 10.7584 63.3265 11.091C63.6247 11.4229 63.8615 11.8279 64.0368 12.306ZM61.218 18.7828L62.0304 18.589L62.0501 18.9655C62.3452 18.9418 62.6027 18.9929 62.8226 19.1186C63.0451 19.2437 63.1924 19.451 63.2644 19.7405C63.3653 20.1516 63.2527 20.5245 62.9266 20.8593C62.6011 21.1968 62.0916 21.4483 61.398 21.6137L61.1936 20.8301C61.5418 20.747 61.8038 20.6393 61.9795 20.5068C62.1587 20.3765 62.2314 20.2219 62.1975 20.0431C62.1628 19.8732 62.0673 19.7602 61.9108 19.704C61.7543 19.6479 61.528 19.6361 61.2321 19.6687L61.218 18.7828Z" fill="white"/>
<path id="A" d="M73.763 17.0185L71.7858 17.002L74.8714 8.30019L77.2492 8.32007L80.1846 17.0722L78.2074 17.0557L76.0777 10.3047L76.0095 10.3041L73.763 17.0185ZM73.6681 13.5872L78.3384 13.6262L78.3263 15.0665L73.656 15.0275L73.6681 13.5872Z" fill="white"/>
<path id="&#226;&#128;&#162;" d="M95.9143 19.0136C95.5916 18.8954 95.3256 18.7087 95.1165 18.4536C94.9084 18.1959 94.7732 17.9043 94.7108 17.5789C94.6512 17.2545 94.6804 16.9309 94.7987 16.6081C94.9179 16.2827 95.1046 16.0167 95.3587 15.8103C95.6165 15.6022 95.9076 15.4683 96.232 15.4086C96.5574 15.3463 96.8814 15.3742 97.2042 15.4925C97.5297 15.6117 97.7951 15.7997 98.0006 16.0565C98.2097 16.3116 98.344 16.6013 98.4037 16.9257C98.467 17.2485 98.4391 17.5725 98.3199 17.898C98.2016 18.2208 98.0136 18.4862 97.7558 18.6943C97.5007 18.9034 97.2105 19.0392 96.8851 19.1015C96.5634 19.1621 96.2398 19.1329 95.9143 19.0136Z" fill="white"/>
<path id="F" d="M109.917 28.1561L115.442 21.4006L119.915 25.0589L118.952 26.2365L115.907 23.7464L114.591 25.3561L117.338 27.6034L116.375 28.781L113.627 26.5337L111.345 29.3243L109.917 28.1561Z" fill="white"/>
<path id="R" d="M119.283 36.6863L126.136 31.2813L128.268 33.9847C128.676 34.5022 128.932 35.0169 129.035 35.5287C129.143 36.041 129.104 36.5259 128.918 36.9834C128.737 37.4414 128.42 37.8489 127.967 38.2061C127.512 38.565 127.043 38.7757 126.56 38.838C126.08 38.8986 125.606 38.8113 125.138 38.576C124.672 38.343 124.231 37.9632 123.816 37.4368L122.388 35.6268L123.552 34.7084L124.795 36.2842C125.014 36.5608 125.233 36.7606 125.453 36.8837C125.673 37.0068 125.894 37.0531 126.116 37.0227C126.34 36.9945 126.564 36.8916 126.79 36.7139C127.017 36.5344 127.173 36.3374 127.257 36.1228C127.343 35.9104 127.353 35.68 127.287 35.4315C127.225 35.1835 127.084 34.9201 126.865 34.6413L126.094 33.6643L120.426 38.135L119.283 36.6863ZM125.321 37.927L123.546 42.0897L122.284 40.4904L124.088 36.3645L125.321 37.927Z" fill="white"/>
<path id="O_3" d="M133.966 52.4292C133.102 52.8292 132.291 53.0059 131.534 52.9591C130.778 52.9149 130.11 52.6858 129.53 52.2719C128.954 51.8594 128.504 51.3038 128.18 50.6053C127.854 49.9015 127.721 49.1959 127.782 48.4885C127.843 47.7811 128.1 47.1246 128.556 46.5192C129.011 45.9138 129.669 45.4117 130.53 45.0129C131.394 44.6129 132.204 44.435 132.96 44.4792C133.716 44.5234 134.382 44.7518 134.959 45.1643C135.537 45.5756 135.99 46.1331 136.316 46.8369C136.639 47.5355 136.771 48.2385 136.71 48.9459C136.653 49.6548 136.397 50.3119 135.942 50.9173C135.488 51.5252 134.829 52.0292 133.966 52.4292ZM133.179 50.7318C133.739 50.4727 134.172 50.1704 134.478 49.8249C134.786 49.482 134.969 49.1138 135.028 48.7202C135.087 48.3267 135.022 47.9276 134.835 47.5229C134.647 47.1181 134.384 46.811 134.046 46.6013C133.708 46.3916 133.308 46.292 132.846 46.3023C132.386 46.3153 131.876 46.4513 131.317 46.7104C130.757 46.9695 130.324 47.2705 130.016 47.6134C129.709 47.9589 129.527 48.3284 129.468 48.7219C129.409 49.1154 129.474 49.5146 129.661 49.9193C129.849 50.324 130.111 50.6312 130.45 50.8409C130.788 51.0505 131.187 51.1489 131.648 51.1359C132.109 51.1256 132.62 50.9909 133.179 50.7318Z" fill="white"/>
<path id="N_3" d="M141.999 66.0871L133.431 67.7467L133.128 66.182L137.799 61.4099L137.786 61.3472L132.394 62.3917L132.043 60.5802L140.611 58.9206L140.919 60.5104L136.247 65.2524L136.261 65.3277L141.65 64.284L141.999 66.0871Z" fill="white"/>
<path id="T" d="M141.138 74.0715L142.658 74.1365L142.352 81.2976L140.832 81.2325L140.946 78.5631L133.747 78.255L133.825 76.4328L141.024 76.7409L141.138 74.0715Z" fill="white"/>
<path id="-" d="M135.699 92.6842L134.304 92.3253L135.295 88.4707L136.69 88.8295L135.699 92.6842Z" fill="white"/>
<path id="E_2" d="M129.369 97.9137L137.218 101.729L134.647 107.018L133.279 106.353L135.043 102.723L133.173 101.814L131.541 105.172L130.173 104.507L131.805 101.149L129.931 100.238L128.159 103.883L126.791 103.218L129.369 97.9137Z" fill="white"/>
<path id="N_4" d="M125.481 120.165L118.685 114.69L119.685 113.449L126.344 113.939L126.384 113.889L122.107 110.443L123.264 109.006L130.061 114.481L129.045 115.742L122.407 115.232L122.359 115.292L126.633 118.735L125.481 120.165Z" fill="white"/>
<path id="D_2" d="M111.705 121.057L114.152 119.164L119.493 126.066L117.026 127.975C116.332 128.512 115.627 128.837 114.912 128.948C114.199 129.061 113.509 128.965 112.841 128.659C112.171 128.355 111.559 127.845 111.004 127.128C110.448 126.409 110.106 125.686 109.978 124.959C109.847 124.233 109.928 123.537 110.22 122.869C110.509 122.204 111.004 121.6 111.705 121.057ZM113.66 121.543L112.734 122.261C112.302 122.594 111.998 122.952 111.822 123.332C111.646 123.717 111.608 124.128 111.71 124.566C111.812 125.009 112.062 125.487 112.46 126.001C112.855 126.512 113.252 126.87 113.653 127.077C114.052 127.286 114.458 127.353 114.87 127.278C115.283 127.203 115.705 126.999 116.136 126.665L117.066 125.945L113.66 121.543Z" fill="white"/>
<path id="&#226;&#128;&#162;_2" d="M94.3232 132.219C94.65 132.112 94.9744 132.095 95.2965 132.166C95.6195 132.239 95.9061 132.385 96.1563 132.602C96.4039 132.82 96.581 133.092 96.6878 133.419C96.7954 133.749 96.8132 134.073 96.7413 134.392C96.6675 134.715 96.5216 135.001 96.3036 135.248C96.0865 135.498 95.8145 135.677 95.4878 135.784C95.1583 135.891 94.8334 135.908 94.5132 135.833C94.1911 135.762 93.9062 135.617 93.6587 135.4C93.4093 135.185 93.2308 134.913 93.1232 134.584C93.0164 134.257 93 133.932 93.0738 133.609C93.1449 133.287 93.289 133.001 93.5061 132.751C93.7214 132.504 93.9938 132.327 94.3232 132.219Z" fill="white"/>
</g>
</g>
<defs>
<filter id="filter0_b_175_41" x="-10" y="-10" width="170" height="170" filterUnits="userSpaceOnUse" color-interpolation-filters="sRGB">
<feFlood flood-opacity="0" result="BackgroundImageFix"/>
<feGaussianBlur in="BackgroundImage" stdDeviation="5"/>
<feComposite in2="SourceAlpha" operator="in" result="effect1_backgroundBlur_175_41"/>
<feBlend mode="normal" in="SourceGraphic" in2="effect1_backgroundBlur_175_41" result="shape"/>
</filter>
</defs>
</svg>
